<svg width="30" height="29" viewBox="0 0 30 29" fill="none" xmlns="http://www.w3.org/2000/svg">
<path d="M14.7072 0.0493164C6.79905 0.0493164 0.357422 6.49094 0.357422 14.3991C0.357422 22.3073 6.79905 28.7489 14.7072 28.7489C22.6154 28.7489 29.057 22.3073 29.057 14.3991C29.057 6.49094 22.6154 0.0493164 14.7072 0.0493164ZM14.7072 2.91928C21.0644 2.91928 26.1871 8.04198 26.1871 14.3991C26.1871 20.7563 21.0644 25.879 14.7072 25.879C8.35009 25.879 3.22738 20.7563 3.22738 14.3991C3.22738 8.04198 8.35009 2.91928 14.7072 2.91928ZM13.2723 5.78924V14.9933L19.4326 21.1536L21.4617 19.1245L16.1422 13.805V5.78924H13.2723Z" fill="white" fill-opacity="0.6"/>
</svg>
