<svg width="1247" height="910" viewBox="0 0 1247 910" fill="none" xmlns="http://www.w3.org/2000/svg">
<path d="M1211.12 350.309L1222.64 377.243L1211.12 404.177L1199.6 377.243L1211.12 350.309ZM1220.74 377.243L1211.12 354.755L1201.51 377.243L1211.12 399.731L1220.74 377.243Z" fill="#63411F" fill-opacity="0.9"/>
<path d="M1205.11 389.102L1206.58 390.083L1217.15 365.384L1215.67 364.391L1205.11 389.102Z" fill="#63411F" fill-opacity="0.9"/>
<path d="M1205.11 365.384L1215.67 390.083L1217.15 389.102L1206.58 364.391L1205.11 365.384Z" fill="#63411F" fill-opacity="0.9"/>
<path d="M1217.13 365.407C1221.74 355.128 1225.85 344.104 1227.04 332.222C1227.62 326.298 1227.18 320.216 1225.61 314.608C1224.04 309.023 1221.18 303.889 1217.18 300.718C1221.1 304.036 1223.8 309.226 1225.21 314.778C1226.64 320.352 1226.93 326.343 1226.21 332.075C1224.77 343.686 1220.5 354.327 1215.69 364.358L1217.13 365.407Z" fill="#63411F" fill-opacity="0.9"/>
<path d="M1206.51 364.358C1201.7 354.327 1197.43 343.686 1195.98 332.075C1195.27 326.332 1195.55 320.352 1196.99 314.778C1198.4 309.226 1201.09 304.036 1205.02 300.718C1201.01 303.889 1198.16 309.023 1196.59 314.608C1195.01 320.216 1194.57 326.298 1195.16 332.222C1196.34 344.093 1200.46 355.128 1205.06 365.407L1206.51 364.358Z" fill="#63411F" fill-opacity="0.9"/>
<path d="M1210.31 402.169C1214.29 425.695 1226.46 446.829 1243.02 459.038C1226.47 471.258 1214.29 492.381 1210.31 515.908L1211.94 516.336C1215.93 492.799 1228.32 471.71 1245.11 459.952L1246.42 459.038L1245.11 458.124C1228.32 446.367 1215.93 425.289 1211.94 401.74L1210.31 402.169Z" fill="#63411F" fill-opacity="0.9"/>
<path d="M1164.05 458.17C1172.31 451.253 1179.87 449.515 1186.52 452.991C1188.55 454.051 1190.49 455.597 1192.34 457.628C1200.05 448.195 1206.08 429.476 1210.3 401.763L1211.94 402.158C1207.68 430.164 1201.51 449.211 1193.56 459.039C1201.51 468.867 1207.68 487.925 1211.94 515.931L1210.3 516.326C1206.08 488.613 1200.04 469.894 1192.34 460.46C1190.49 462.48 1188.55 464.026 1186.52 465.098C1179.87 468.573 1172.31 466.836 1164.05 459.919L1163.01 459.05L1164.05 458.17ZM1185.86 454.92C1180.05 451.874 1173.39 453.261 1166.04 459.039C1173.39 464.816 1180.05 466.193 1185.86 463.157C1187.68 462.198 1189.43 460.833 1191.1 459.039C1189.43 457.245 1187.69 455.879 1185.86 454.92Z" fill="#63411F" fill-opacity="0.9"/>
<path d="M1211.12 513.899L1222.64 540.833L1211.12 567.768L1199.6 540.833L1211.12 513.899ZM1220.74 540.833L1211.12 518.345L1201.51 540.833L1211.12 563.322L1220.74 540.833Z" fill="#63411F" fill-opacity="0.9"/>
<path d="M1205.11 528.975L1215.67 553.686L1217.15 552.693L1206.58 527.982L1205.11 528.975Z" fill="#63411F" fill-opacity="0.9"/>
<path d="M1205.11 552.693L1206.58 553.686L1217.15 528.975L1215.67 527.982L1205.11 552.693Z" fill="#63411F" fill-opacity="0.9"/>
<path d="M1215.68 553.708C1220.48 563.739 1224.76 574.38 1226.2 585.99C1226.91 591.734 1226.63 597.714 1225.2 603.288C1223.79 608.84 1221.09 614.03 1217.17 617.348C1221.17 614.177 1224.03 609.043 1225.59 603.457C1227.17 597.849 1227.61 591.768 1227.03 585.844C1225.84 573.973 1221.72 562.938 1217.12 552.659L1215.68 553.708Z" fill="#63411F" fill-opacity="0.9"/>
<path d="M1216.41 528.478C1218.74 522.87 1220.83 517.092 1222.51 511.089C1224.12 505.075 1225.21 498.711 1225.11 492.212C1225.04 485.701 1223.37 479.326 1220.96 473.639C1218.52 467.93 1215.34 462.841 1211.95 458.079C1208.59 453.487 1205.46 448.601 1203.08 443.207C1200.69 437.825 1199.19 431.878 1198.86 425.74C1198.56 419.591 1199.41 413.373 1200.79 407.37C1202.1 401.322 1203.97 395.444 1205.84 389.587C1203.51 395.195 1201.43 400.973 1199.74 406.976C1198.14 412.99 1197.03 419.354 1197.14 425.853C1197.2 432.364 1198.87 438.739 1201.29 444.426C1203.72 450.135 1206.89 455.224 1210.3 459.986C1213.66 464.578 1216.79 469.464 1219.17 474.858C1221.56 480.24 1223.06 486.186 1223.4 492.325C1223.7 498.474 1222.83 504.692 1221.47 510.695C1220.16 516.743 1218.28 522.61 1216.41 528.478Z" fill="#63411F" fill-opacity="0.9"/>
<path d="M1199.21 406.751C1200.8 401.086 1202.81 395.377 1205.35 389.272L1206.34 389.915C1206.34 389.927 1206.33 389.938 1206.33 389.949C1204.5 395.67 1202.62 401.583 1201.32 407.574C1199.76 414.367 1199.13 420.291 1199.41 425.707C1199.73 431.62 1201.13 437.397 1203.56 442.87C1205.63 447.552 1208.42 452.235 1212.36 457.617C1216.41 463.293 1219.3 468.28 1221.46 473.313C1224.19 479.733 1225.61 486.086 1225.68 492.202C1225.77 498.114 1224.91 504.332 1223.05 511.316C1221.46 516.958 1219.46 522.679 1216.92 528.794L1215.93 528.151C1217.76 522.419 1219.65 516.495 1220.95 510.492C1222.51 503.7 1223.14 497.776 1222.85 492.36C1222.54 486.458 1221.14 480.681 1218.69 475.186C1216.62 470.481 1213.83 465.798 1209.89 460.438C1205.85 454.785 1202.96 449.798 1200.8 444.743C1198.07 438.3 1196.65 431.947 1196.58 425.854C1196.58 425.561 1196.57 425.267 1196.57 424.985C1196.57 419.377 1197.44 413.397 1199.21 406.751ZM1222.18 510.109C1223.86 503.587 1224.64 497.697 1224.55 492.224C1224.48 486.334 1223.11 480.196 1220.46 473.978C1218.35 469.048 1215.52 464.139 1211.53 458.565C1207.54 453.104 1204.69 448.331 1202.58 443.558C1200.07 437.893 1198.62 431.924 1198.29 425.809C1198.01 420.393 1198.61 414.48 1200.11 407.778C1198.39 414.378 1197.62 420.291 1197.69 425.854C1197.74 431.721 1199.12 437.871 1201.77 444.099C1203.88 449.053 1206.72 453.95 1210.71 459.513C1214.69 464.952 1217.53 469.713 1219.65 474.52C1222.18 480.196 1223.62 486.165 1223.95 492.281C1223.99 493.116 1224.02 493.962 1224.02 494.819C1224.02 499.468 1223.41 504.512 1222.18 510.109ZM1216.41 528.478L1216.93 528.738L1216.41 528.478Z" fill="#63411F" fill-opacity="0.9"/>
<path d="M1205.84 528.478C1203.97 522.61 1202.1 516.743 1200.79 510.695C1199.41 504.68 1198.56 498.474 1198.86 492.325C1199.19 486.186 1200.7 480.24 1203.09 474.858C1205.47 469.453 1208.6 464.578 1211.96 459.986C1215.36 455.236 1218.53 450.135 1220.97 444.426C1223.38 438.75 1225.05 432.364 1225.12 425.853C1225.22 419.354 1224.13 413.001 1222.52 406.976C1220.82 400.973 1218.75 395.195 1216.41 389.587C1218.29 395.455 1220.16 401.322 1221.47 407.37C1222.84 413.385 1223.7 419.591 1223.4 425.74C1223.07 431.878 1221.57 437.825 1219.18 443.207C1216.8 448.612 1213.67 453.487 1210.31 458.079C1206.91 462.841 1203.73 467.93 1201.3 473.639C1198.88 479.315 1197.21 485.701 1197.15 492.212C1197.04 498.711 1198.14 505.064 1199.75 511.089C1201.43 517.092 1203.52 522.87 1205.84 528.478Z" fill="#63411F" fill-opacity="0.9"/>
<path d="M1196.58 492.213C1196.65 486.097 1198.06 479.744 1200.8 473.324C1202.94 468.291 1205.84 463.304 1209.89 457.628C1213.83 452.257 1216.63 447.563 1218.68 442.892C1221.12 437.408 1222.52 431.631 1222.83 425.73C1223.1 420.336 1222.47 414.39 1220.91 407.585C1219.62 401.605 1217.73 395.693 1215.88 389.87L1216.9 389.295C1219.44 395.388 1221.43 401.109 1223.04 406.784C1224.9 413.758 1225.75 420.009 1225.66 425.887C1225.6 431.992 1224.19 438.345 1221.44 444.788C1219.29 449.843 1216.4 454.83 1212.35 460.483C1208.43 465.832 1205.63 470.514 1203.56 475.22C1201.13 480.715 1199.73 486.492 1199.4 492.382C1199.14 497.787 1199.76 503.722 1201.32 510.526C1202.62 516.506 1204.5 522.43 1206.33 528.151L1206.36 528.241L1205.35 528.828C1202.81 522.724 1200.8 517.003 1199.21 511.339C1197.44 504.715 1196.57 498.735 1196.57 493.115C1196.58 492.799 1196.58 492.506 1196.58 492.213ZM1198.3 492.269C1198.62 486.165 1200.07 480.196 1202.59 474.52C1204.7 469.713 1207.55 464.951 1211.54 459.524C1215.52 453.961 1218.37 449.053 1220.47 444.111C1223.13 437.871 1224.5 431.733 1224.56 425.854C1224.64 420.313 1223.86 414.39 1222.14 407.811C1223.63 414.514 1224.23 420.404 1223.96 425.82C1223.63 431.936 1222.19 437.916 1219.67 443.569C1217.58 448.353 1214.73 453.115 1210.74 458.576C1206.75 464.162 1203.9 469.07 1201.8 474.001C1199.15 480.218 1197.79 486.368 1197.72 492.258C1197.64 497.832 1198.41 503.643 1200.1 510.165C1198.61 503.496 1198.03 497.64 1198.3 492.269Z" fill="#63411F" fill-opacity="0.9"/>
<path d="M1205.06 552.659C1200.46 562.938 1196.34 573.962 1195.16 585.844C1194.57 591.768 1195.01 597.849 1196.59 603.457C1198.16 609.043 1201.01 614.177 1205.02 617.348C1201.09 614.03 1198.4 608.84 1196.99 603.288C1195.55 597.714 1195.27 591.722 1195.98 585.99C1197.43 574.38 1201.7 563.739 1206.51 553.708L1205.06 552.659Z" fill="#63411F" fill-opacity="0.9"/>
<path d="M35.2854 567.767L23.7676 540.833L35.2854 513.899L46.8033 540.833L35.2854 567.767ZM25.6741 540.833L35.2967 563.321L44.9081 540.833L35.2967 518.345L25.6741 540.833Z" fill="#63411F" fill-opacity="0.9"/>
<path d="M41.3117 528.975L39.8339 527.982L29.2637 552.693L30.7415 553.686L41.3117 528.975Z" fill="#63411F" fill-opacity="0.9"/>
<path d="M41.3117 552.693L30.7415 527.982L29.2637 528.975L39.8339 553.686L41.3117 552.693Z" fill="#63411F" fill-opacity="0.9"/>
<path d="M29.2746 552.659C24.6832 562.938 20.5544 573.962 19.3699 585.844C18.7833 591.768 19.2233 597.849 20.8026 603.457C22.3707 609.043 25.2247 614.177 29.2295 617.348C25.3037 614.03 22.6076 608.84 21.1974 603.288C19.7648 597.714 19.4827 591.722 20.1934 585.99C21.6374 574.38 25.9129 563.739 30.7186 553.708L29.2746 552.659Z" fill="#63411F" fill-opacity="0.9"/>
<path d="M39.9004 553.708C44.7061 563.739 48.9815 574.38 50.4255 585.99C51.1362 591.734 50.8542 597.714 49.4215 603.288C48.0114 608.84 45.3152 614.03 41.3895 617.348C45.3942 614.177 48.2483 609.043 49.8163 603.457C51.3957 597.849 51.8356 591.768 51.249 585.844C50.0645 573.973 45.947 562.938 41.3443 552.659L39.9004 553.708Z" fill="#63411F" fill-opacity="0.9"/>
<path d="M36.1103 515.908C32.1281 492.381 19.956 471.247 3.39557 459.038C19.9447 446.818 32.1281 425.695 36.1103 402.169L34.4745 401.74C30.4924 425.278 18.0946 446.367 1.30858 458.124L0 459.038L1.30858 459.952C18.0946 471.71 30.4924 492.787 34.4745 516.336L36.1103 515.908Z" fill="#63411F" fill-opacity="0.9"/>
<path d="M82.3735 459.907C74.1045 466.824 66.5463 468.562 59.9018 465.086C57.8713 464.026 55.931 462.48 54.0809 460.449C46.3647 469.882 40.3407 488.601 36.1216 516.314L34.4746 515.919C38.7388 487.913 44.9095 468.866 52.8625 459.038C44.9095 449.21 38.7388 430.152 34.4746 402.146L36.1216 401.751C40.3407 429.464 46.376 448.183 54.0809 457.617C55.931 455.597 57.8713 454.051 59.9018 452.979C66.5463 449.504 74.1045 451.241 82.3735 458.158L83.4113 459.027L82.3735 459.907ZM60.5449 463.157C66.3546 466.203 73.0216 464.815 80.3655 459.038C73.0216 453.261 66.3546 451.885 60.5449 454.92C58.7286 455.879 56.9801 457.244 55.3105 459.038C56.9801 460.821 58.7286 462.198 60.5449 463.157Z" fill="#63411F" fill-opacity="0.9"/>
<path d="M35.2854 404.177L23.7676 377.243L35.2854 350.309L46.8033 377.243L35.2854 404.177ZM25.6741 377.243L35.2967 399.731L44.9081 377.243L35.2967 354.755L25.6741 377.243Z" fill="#63411F" fill-opacity="0.9"/>
<path d="M41.3117 389.102L30.7415 364.391L29.2637 365.384L39.8339 390.083L41.3117 389.102Z" fill="#63411F" fill-opacity="0.9"/>
<path d="M41.3117 365.384L39.8339 364.391L29.2637 389.102L30.7415 390.083L41.3117 365.384Z" fill="#63411F" fill-opacity="0.9"/>
<path d="M30.7283 364.358C25.9226 354.327 21.6472 343.686 20.2032 332.075C19.4925 326.332 19.7745 320.352 21.2072 314.778C22.6173 309.226 25.3135 304.036 29.2392 300.718C25.2345 303.889 22.3804 309.023 20.8124 314.608C19.233 320.216 18.7931 326.298 19.3797 332.222C20.5642 344.093 24.6817 355.128 29.2844 365.407L30.7283 364.358Z" fill="#63411F" fill-opacity="0.9"/>
<path d="M30.0084 389.6C27.6845 395.208 25.5975 400.985 23.9054 406.988C22.2922 413.002 21.198 419.366 21.2995 425.865C21.3672 432.376 23.0368 438.751 25.4509 444.438C27.8876 450.147 31.0688 455.236 34.4643 459.998C37.8261 464.591 40.9509 469.476 43.3312 474.87C45.7227 480.252 47.2231 486.199 47.5502 492.337C47.8548 498.486 46.9975 504.704 45.6212 510.707C44.3126 516.755 42.44 522.633 40.5673 528.501C42.9025 522.893 44.9782 517.116 46.6703 511.113C48.2722 505.099 49.3777 498.735 49.2762 492.235C49.2085 485.725 47.5389 479.35 45.1248 473.663C42.6881 467.953 39.5182 462.864 36.1114 458.102C32.7496 453.51 29.6248 448.624 27.2445 443.231C24.853 437.848 23.3526 431.902 23.0142 425.764C22.7096 419.614 23.5782 413.397 24.9432 407.394C26.2631 401.335 28.1357 395.467 30.0084 389.6Z" fill="#63411F" fill-opacity="0.9"/>
<path d="M47.2 511.327C45.6094 516.992 43.6014 522.701 41.0632 528.806L40.0705 528.162C40.0705 528.151 40.0818 528.14 40.0818 528.129C41.9093 522.408 43.7932 516.495 45.0905 510.504C46.6473 503.711 47.279 497.787 46.997 492.371C46.6811 486.458 45.2823 480.681 42.8456 475.208C40.7812 470.526 37.9948 465.843 34.0465 460.461C29.9966 454.785 27.1087 449.798 24.954 444.765C22.224 438.345 20.8026 431.992 20.735 425.876C20.6447 419.964 21.5021 413.746 23.3634 406.762C24.954 401.12 26.9508 395.399 29.489 389.284L30.4817 389.927C28.6542 395.659 26.759 401.583 25.4617 407.586C23.9049 414.378 23.2732 420.302 23.5552 425.718C23.8711 431.62 25.2699 437.397 27.7179 442.892C29.7936 447.597 32.5799 452.28 36.517 457.64C40.5556 463.293 43.4548 468.28 45.6094 473.335C48.3394 479.778 49.7608 486.131 49.8285 492.224C49.8285 492.517 49.8398 492.811 49.8398 493.093C49.8398 498.701 48.9712 504.681 47.2 511.327ZM24.2433 407.958C22.5512 414.48 21.7841 420.37 21.863 425.843C21.9307 431.733 23.2957 437.871 25.9468 444.088C28.0563 449.019 30.8878 453.927 34.8813 459.502C38.8747 464.963 41.7175 469.736 43.827 474.509C46.3427 480.173 47.7866 486.142 48.1251 492.258C48.3958 497.674 47.7979 503.587 46.3088 510.289C48.0348 503.688 48.8019 497.776 48.7343 492.213C48.6778 486.345 47.3016 480.196 44.6505 473.956C42.541 469.002 39.6982 464.105 35.716 458.542C31.7339 453.104 28.8798 448.342 26.7703 443.535C24.2433 437.86 22.7994 431.891 22.4722 425.775C22.4271 424.94 22.4045 424.094 22.4045 423.236C22.3933 418.598 23.0024 413.566 24.2433 407.958ZM30.0079 389.6L29.489 389.34L30.0079 389.6Z" fill="#63411F" fill-opacity="0.9"/>
<path d="M40.5767 389.599C42.4493 395.467 44.3219 401.334 45.6305 407.382C47.0068 413.396 47.8641 419.602 47.5596 425.752C47.2324 431.89 45.7208 437.837 43.3292 443.219C40.9489 448.624 37.8241 453.498 34.4624 458.091C31.0556 462.841 27.8856 467.941 25.4489 473.651C23.0348 479.327 21.3652 485.713 21.2975 492.224C21.196 498.723 22.2903 505.076 23.9034 511.101C25.5956 517.104 27.6713 522.881 30.0064 528.489C28.1338 522.622 26.2612 516.754 24.9526 510.695C23.5763 504.681 22.7189 498.475 23.0235 492.325C23.3507 486.187 24.851 480.24 27.2426 474.858C29.6229 469.453 32.7477 464.579 36.1094 459.986C39.505 455.225 42.6862 450.136 45.1229 444.426C47.537 438.751 49.2066 432.364 49.2743 425.853C49.3758 419.354 48.2815 413.001 46.6684 406.976C44.9875 400.984 42.9005 395.207 40.5767 389.599Z" fill="#63411F" fill-opacity="0.9"/>
<path d="M49.827 425.865C49.7593 431.981 48.3492 438.334 45.6079 444.754C43.4645 449.787 40.5653 454.774 36.5155 460.461C32.5784 465.832 29.7808 470.526 27.7276 475.197C25.2909 480.681 23.8921 486.458 23.5762 492.36C23.3055 497.753 23.9372 503.7 25.494 510.504C26.7913 516.484 28.6752 522.397 30.5253 528.219L29.51 528.794C26.9718 522.701 24.9638 516.98 23.3732 511.305C21.5118 504.332 20.6545 498.08 20.7447 492.202C20.8124 486.097 22.2225 479.744 24.9638 473.302C27.1184 468.246 30.0064 463.259 34.0562 457.606C37.982 452.258 40.7797 447.575 42.8441 442.87C45.2808 437.374 46.6796 431.597 47.0068 425.707C47.2662 420.302 46.6458 414.367 45.089 407.563C43.7917 401.583 41.9078 395.659 40.0803 389.938L40.0464 389.848L41.0617 389.261C43.5999 395.366 45.5966 401.086 47.1985 406.751C48.9696 413.374 49.8383 419.355 49.8383 424.974C49.8383 425.278 49.8383 425.572 49.827 425.865ZM48.1236 425.809C47.7964 431.913 46.3525 437.882 43.8255 443.558C41.716 448.365 38.8732 453.126 34.891 458.554C30.9088 464.117 28.0661 469.025 25.9565 473.967C23.3055 480.207 21.9292 486.345 21.8728 492.224C21.7938 497.764 22.5722 503.688 24.2869 510.267C22.7979 503.564 22.2 497.674 22.4707 492.258C22.7979 486.142 24.2418 480.162 26.7575 474.509C28.8557 469.725 31.6985 464.963 35.7032 459.502C39.6967 453.916 42.5282 449.008 44.6378 444.077C47.2888 437.86 48.6538 431.71 48.7214 425.82C48.8004 420.246 48.0333 414.435 46.3412 407.913C47.7964 414.582 48.383 420.438 48.1236 425.809Z" fill="#63411F" fill-opacity="0.9"/>
<path d="M41.3561 365.407C45.9474 355.128 50.0762 344.104 51.2607 332.222C51.8473 326.298 51.4074 320.216 49.8281 314.608C48.26 309.023 45.4059 303.889 41.4012 300.718C45.327 304.036 48.0231 309.226 49.4332 314.778C50.8659 320.352 51.1479 326.343 50.4372 332.075C48.9933 343.686 44.7178 354.327 39.9121 364.358L41.3561 365.407Z" fill="#63411F" fill-opacity="0.9"/>
<path d="M731.785 872.064L704.857 884.442L677.93 872.064L704.857 859.686L731.785 872.064ZM704.857 882.4L727.34 872.064L704.857 861.728L682.374 872.064L704.857 882.4Z" fill="#63411F" fill-opacity="0.9"/>
<path d="M693.002 865.587L692.01 867.178L716.715 878.541L717.696 876.95L693.002 865.587Z" fill="#63411F" fill-opacity="0.9"/>
<path d="M716.715 865.587L692.01 876.95L693.002 878.541L717.696 867.178L716.715 865.587Z" fill="#63411F" fill-opacity="0.9"/>
<path d="M716.68 878.529C726.957 883.472 737.978 887.906 749.857 889.17C755.779 889.802 761.86 889.328 767.466 887.624C773.051 885.943 778.183 882.874 781.353 878.563C778.037 882.783 772.847 885.683 767.297 887.195C761.724 888.73 755.734 889.035 750.004 888.267C738.396 886.721 727.758 882.118 717.729 876.95L716.68 878.529Z" fill="#63411F" fill-opacity="0.9"/>
<path d="M717.729 867.1C727.758 861.943 738.396 857.328 750.004 855.783C755.746 855.015 761.724 855.32 767.297 856.855C772.847 858.378 778.037 861.266 781.353 865.486C778.183 861.176 773.051 858.107 767.466 856.426C761.86 854.722 755.779 854.248 749.857 854.88C737.989 856.155 726.957 860.578 716.68 865.52L717.729 867.1Z" fill="#63411F" fill-opacity="0.9"/>
<path d="M679.928 871.184C656.407 875.461 635.278 888.55 623.072 906.344C610.854 888.55 589.737 875.461 566.216 871.184L565.787 872.945C589.319 877.221 610.403 890.547 622.158 908.601L623.072 910L623.986 908.601C635.74 890.558 656.813 877.232 680.356 872.945L679.928 871.184Z" fill="#63411F" fill-opacity="0.9"/>
<path d="M623.95 821.446C630.865 830.338 632.603 838.462 629.128 845.605C628.068 847.794 626.522 849.881 624.492 851.867C633.923 860.16 652.638 866.637 680.344 871.173L679.949 872.945C651.949 868.364 632.907 861.729 623.07 853.176C613.245 861.729 594.191 868.364 566.192 872.945L565.797 871.173C593.503 866.637 612.218 860.149 621.649 851.867C619.63 849.881 618.084 847.794 617.012 845.605C613.527 838.462 615.275 830.338 622.19 821.446L623.059 820.329L623.95 821.446ZM627.188 844.905C630.234 838.654 628.846 831.5 623.07 823.602C617.294 831.5 615.918 838.654 618.953 844.905C619.912 846.857 621.277 848.741 623.07 850.535C624.864 848.741 626.24 846.868 627.188 844.905Z" fill="#63411F" fill-opacity="0.9"/>
<path d="M568.222 872.065L541.295 884.443L514.367 872.065L541.295 859.687L568.222 872.065ZM541.295 882.401L563.778 872.065L541.295 861.729L518.812 872.065L541.295 882.401Z" fill="#63411F" fill-opacity="0.9"/>
<path d="M553.162 865.588L528.457 876.951L529.438 878.542L554.144 867.179L553.162 865.588Z" fill="#63411F" fill-opacity="0.9"/>
<path d="M529.438 865.588L528.457 867.179L553.162 878.542L554.144 876.951L529.438 865.588Z" fill="#63411F" fill-opacity="0.9"/>
<path d="M528.423 876.961C518.395 882.117 507.757 886.732 496.149 888.278C490.407 889.045 484.428 888.741 478.855 887.206C473.305 885.683 468.115 882.794 464.799 878.574C467.969 882.885 473.102 885.954 478.686 887.635C484.292 889.339 490.373 889.813 496.295 889.181C508.163 887.906 519.196 883.483 529.472 878.54L528.423 876.961Z" fill="#63411F" fill-opacity="0.9"/>
<path d="M553.648 877.74C559.255 880.245 565.031 882.479 571.032 884.295C577.045 886.022 583.408 887.206 589.894 887.094C596.403 887.015 602.777 885.232 608.462 882.637C614.171 880.019 619.258 876.6 624.019 872.944C628.61 869.333 633.495 865.971 638.887 863.409C644.268 860.837 650.213 859.223 656.35 858.873C662.498 858.546 668.714 859.471 674.715 860.95C680.762 862.36 686.639 864.368 692.494 866.388C686.888 863.883 681.112 861.649 675.11 859.832C669.098 858.106 662.735 856.921 656.237 857.034C649.728 857.102 643.354 858.907 637.669 861.491C631.961 864.109 626.873 867.528 622.112 871.184C617.521 874.806 612.636 878.157 607.244 880.718C601.863 883.291 595.918 884.905 589.781 885.266C583.633 885.593 577.417 884.668 571.416 883.189C565.381 881.768 559.515 879.759 553.648 877.74Z" fill="#63411F" fill-opacity="0.9"/>
<path d="M675.349 859.257C681.012 860.973 686.72 863.128 692.823 865.847L692.18 866.908C692.169 866.908 692.157 866.896 692.146 866.896V866.908C686.426 864.944 680.515 862.925 674.525 861.525C667.734 859.855 661.811 859.178 656.397 859.472C650.485 859.81 644.71 861.322 639.238 863.94C634.557 866.152 629.875 869.153 624.494 873.396C618.82 877.751 613.834 880.854 608.802 883.167C602.383 886.101 596.032 887.624 589.918 887.692C584.007 887.794 577.791 886.868 570.808 884.86C565.168 883.156 559.448 881.001 553.334 878.27L553.977 877.198C559.708 879.162 565.63 881.193 571.632 882.592C578.434 884.262 584.345 884.939 589.76 884.646C595.66 884.307 601.436 882.806 606.93 880.177C611.634 877.943 616.315 874.942 621.674 870.722C627.326 866.377 632.312 863.274 637.366 860.95C643.807 858.005 650.158 856.482 656.25 856.414C656.543 856.414 656.825 856.403 657.119 856.403C662.737 856.425 668.704 857.35 675.349 859.257ZM572.015 883.946C578.536 885.763 584.424 886.586 589.896 886.496C595.784 886.428 601.921 884.95 608.137 882.107C613.067 879.839 617.974 876.792 623.547 872.504C629.007 868.205 633.778 865.147 638.55 862.891C644.213 860.183 650.181 858.626 656.295 858.276C661.71 857.982 667.621 858.626 674.322 860.239C667.723 858.389 661.811 857.554 656.25 857.633C650.384 857.7 644.236 859.178 637.997 862.022C633.045 864.29 628.149 867.348 622.588 871.624C617.162 875.912 612.39 878.97 607.584 881.238C601.91 883.946 595.942 885.503 589.828 885.853C588.993 885.898 588.147 885.921 587.29 885.921C582.653 885.921 577.611 885.266 572.015 883.946ZM553.65 877.74L553.39 878.304L553.65 877.74Z" fill="#63411F" fill-opacity="0.9"/>
<path d="M553.648 866.389C559.515 864.38 565.381 862.36 571.427 860.95C577.44 859.472 583.644 858.546 589.793 858.874C595.929 859.224 601.874 860.848 607.255 863.421C612.659 865.982 617.532 869.334 622.124 872.956C626.873 876.612 631.972 880.031 637.68 882.648C643.354 885.244 649.739 887.038 656.249 887.105C662.746 887.218 669.098 886.033 675.122 884.307C681.123 882.49 686.899 880.256 692.505 877.751C686.639 879.76 680.773 881.779 674.727 883.19C668.714 884.668 662.509 885.593 656.361 885.266C650.225 884.905 644.28 883.303 638.899 880.73C633.495 878.169 628.622 874.817 624.03 871.195C619.27 867.54 614.182 864.121 608.474 861.503C602.799 858.908 596.414 857.113 589.905 857.046C583.408 856.933 577.056 858.118 571.044 859.844C565.031 861.638 559.255 863.884 553.648 866.389Z" fill="#63411F" fill-opacity="0.9"/>
<path d="M589.907 856.436C596.021 856.504 602.372 858.027 608.791 860.972C613.822 863.285 618.809 866.389 624.494 870.744C629.864 874.975 634.557 877.977 639.227 880.2C644.71 882.817 650.485 884.318 656.385 884.668C661.778 884.961 667.723 884.284 674.525 882.614C680.504 881.227 686.415 879.195 692.236 877.198L692.823 878.293C686.731 881.023 681.012 883.179 675.337 884.894C668.366 886.902 662.116 887.816 656.239 887.726C650.136 887.658 643.785 886.135 637.343 883.19C632.289 880.865 627.303 877.762 621.651 873.407C616.304 869.187 611.623 866.185 606.918 863.951C601.425 861.322 595.649 859.821 589.76 859.483C584.357 859.201 578.423 859.867 571.62 861.537C565.642 862.936 559.719 864.955 554 866.919L553.909 866.953L553.334 865.858C559.437 863.128 565.156 860.972 570.819 859.269C577.441 857.362 583.42 856.436 589.038 856.436C589.331 856.425 589.625 856.425 589.907 856.436ZM589.85 858.276C595.953 858.625 601.921 860.183 607.607 862.891C612.412 865.159 617.173 868.216 622.599 872.504C628.16 876.792 633.068 879.839 638.009 882.118C644.247 884.973 650.384 886.451 656.261 886.507C661.8 886.597 667.723 885.751 674.299 883.912C667.61 885.514 661.71 886.157 656.295 885.864C650.181 885.514 644.202 883.957 638.55 881.249C633.767 878.992 629.007 875.934 623.547 871.635C617.962 867.348 613.055 864.29 608.126 862.033C601.91 859.19 595.762 857.711 589.873 857.644C584.3 857.565 578.49 858.388 571.97 860.205C578.626 858.614 584.481 857.982 589.85 858.276Z" fill="#63411F" fill-opacity="0.9"/>
<path d="M529.472 865.542C519.196 860.6 508.174 856.166 496.295 854.902C490.373 854.27 484.292 854.744 478.686 856.448C473.102 858.129 467.969 861.198 464.799 865.509C468.115 861.288 473.305 858.389 478.855 856.877C484.428 855.342 490.418 855.037 496.149 855.805C507.757 857.35 518.395 861.954 528.423 867.122L529.472 865.542Z" fill="#63411F" fill-opacity="0.9"/>
<path d="M514.379 40.9363L541.307 28.5581L568.234 40.9363L541.307 53.3145L514.379 40.9363ZM541.307 30.6005L518.824 40.9363L541.307 51.2721L563.789 40.9363L541.307 30.6005Z" fill="#63411F" fill-opacity="0.9"/>
<path d="M565.164 44.4136L566.146 42.8225L541.44 31.4713L540.459 33.0509L565.164 44.4136Z" fill="#63411F" fill-opacity="0.9"/>
<path d="M541.44 44.4136L566.146 33.0509L565.164 31.4713L540.459 42.8225L541.44 44.4136Z" fill="#63411F" fill-opacity="0.9"/>
<path d="M541.472 31.4813C531.196 26.5391 520.174 22.1047 508.295 20.8409C502.373 20.209 496.292 20.6829 490.686 22.3868C485.102 24.068 479.969 27.1372 476.799 31.4476C480.115 27.2275 485.305 24.3276 490.855 22.8156C496.428 21.281 502.418 20.9764 508.149 21.7437C519.757 23.2895 530.395 27.8931 540.423 33.061L541.472 31.4813Z" fill="#63411F" fill-opacity="0.9"/>
<path d="M528.423 45.9006C518.395 51.0572 507.757 55.6721 496.149 57.2179C490.407 57.9852 484.428 57.6806 478.855 56.1461C473.305 54.6228 468.115 51.7341 464.799 47.5141C467.969 51.8244 473.102 54.8936 478.686 56.5748C484.292 58.2787 490.373 58.7526 496.295 58.1207C508.163 56.8456 519.196 52.4224 529.472 47.4802L528.423 45.9006Z" fill="#63411F" fill-opacity="0.9"/>
<path d="M578.226 38.8154C601.746 34.5389 622.876 21.45 635.082 3.65575C647.299 21.45 668.417 34.5389 691.937 38.8154L692.366 37.0553C668.834 32.7788 647.75 19.4528 635.995 1.39902L635.082 -0.000137329L634.168 1.39902C622.413 19.4415 601.34 32.7675 577.797 37.0553L578.226 38.8154Z" fill="#63411F" fill-opacity="0.9"/>
<path d="M622.202 91.5538C615.287 82.6623 613.55 74.5381 617.024 67.3955C618.084 65.2065 619.63 63.1191 621.661 61.1332C612.23 52.8398 593.515 46.3628 565.809 41.8268L566.203 40.0553C594.203 44.6365 613.245 51.2713 623.082 59.8243C632.908 51.2713 651.961 44.6365 679.96 40.0553L680.355 41.8268C652.649 46.3628 633.934 52.851 624.503 61.1332C626.523 63.1191 628.068 65.2065 629.14 67.3955C632.626 74.5381 630.877 82.6623 623.962 91.5538L623.093 92.6709L622.202 91.5538ZM618.964 68.0951C615.919 74.3463 617.306 81.5001 623.082 89.3986C628.858 81.5001 630.234 74.3463 627.199 68.0951C626.241 66.1431 624.876 64.2587 623.082 62.4646C621.288 64.2587 619.912 66.1318 618.964 68.0951Z" fill="#63411F" fill-opacity="0.9"/>
<path d="M677.93 40.9363L704.857 28.558L731.785 40.9363L704.857 53.3257L677.93 40.9363ZM704.857 30.6004L682.374 40.9363L704.857 51.272L727.34 40.9363L704.857 30.6004Z" fill="#63411F" fill-opacity="0.9"/>
<path d="M705.002 44.4126L729.696 33.0499L728.715 31.4703L704.01 42.8216L705.002 44.4126Z" fill="#63411F" fill-opacity="0.9"/>
<path d="M728.715 44.4126L729.696 42.8216L705.002 31.4703L704.01 33.0499L728.715 44.4126Z" fill="#63411F" fill-opacity="0.9"/>
<path d="M729.729 33.0386C739.758 27.882 750.396 23.2671 762.004 21.7212C767.746 20.9539 773.724 21.2585 779.297 22.7931C784.847 24.3164 790.037 27.205 793.353 31.4251C790.183 27.1147 785.051 24.0456 779.466 22.3643C773.86 20.6605 767.779 20.1866 761.857 20.8185C749.989 22.0935 738.957 26.5167 728.68 31.459L729.729 33.0386Z" fill="#63411F" fill-opacity="0.9"/>
<path d="M692.504 35.2608C686.897 32.7558 681.121 30.5216 675.12 28.7049C669.107 26.9785 662.744 25.7938 656.258 25.9066C649.749 25.9856 643.375 27.7685 637.689 30.3637C631.981 32.9815 626.894 36.4004 622.133 40.0563C617.542 43.6671 612.657 47.0296 607.265 49.5909C601.884 52.1636 595.939 53.7772 589.802 54.127C583.654 54.4542 577.438 53.529 571.436 52.0508C565.379 50.6404 559.513 48.6318 553.646 46.612C559.253 49.117 565.029 51.3512 571.03 53.1679C577.043 54.8943 583.406 56.079 589.903 55.9662C596.412 55.8985 602.786 54.0932 608.472 51.5092C614.18 48.8914 619.268 45.4724 624.028 41.8165C628.62 38.1945 633.504 34.8433 638.897 32.2819C644.278 29.7092 650.223 28.0956 656.359 27.7346C662.508 27.4073 668.723 28.3327 674.725 29.8108C680.771 31.2326 686.637 33.2523 692.504 35.2608Z" fill="#63411F" fill-opacity="0.9"/>
<path d="M570.806 53.7434C565.143 52.0282 559.424 49.8731 553.332 47.1538L553.975 46.093C553.986 46.093 553.998 46.1043 554.009 46.1043V46.093C559.728 48.0564 565.64 50.0762 571.63 51.4753C578.421 53.1453 584.343 53.8223 589.758 53.5289C595.669 53.1904 601.445 51.6784 606.916 49.0606C611.598 46.849 616.28 43.8476 621.661 39.6049C627.335 35.2495 632.321 32.1464 637.352 29.8333C643.771 26.8995 650.123 25.3764 656.237 25.3087C662.148 25.2071 668.364 26.1322 675.347 28.1407C680.987 29.8446 686.707 31.9998 692.821 34.7305L692.178 35.8024C686.447 33.839 680.525 31.8079 674.523 30.4088C667.732 28.7388 661.81 28.0618 656.395 28.3552C650.495 28.6937 644.719 30.1944 639.225 32.8235C634.521 35.0576 629.839 38.0591 624.481 42.2792C618.829 46.6233 613.843 49.7264 608.789 52.0508C602.348 54.9958 595.997 56.5191 589.905 56.5868C589.612 56.5868 589.318 56.5981 589.036 56.5981C583.418 56.5869 577.451 55.6503 570.806 53.7434ZM674.14 29.0548C667.619 27.2381 661.731 26.4144 656.259 26.5047C650.371 26.5724 644.234 28.0505 638.018 30.894C633.088 33.162 628.181 36.2086 622.608 40.4964C617.148 44.7954 612.376 47.8533 607.605 50.1101C601.942 52.8181 595.974 54.3752 589.86 54.725C584.445 55.0184 578.534 54.3752 571.833 52.7617C578.432 54.6122 584.343 55.4471 589.905 55.3681C595.771 55.3004 601.919 53.8224 608.157 50.9789C613.11 48.7109 618.006 45.653 623.567 41.3765C628.993 37.0888 633.765 34.0309 638.571 31.7629C644.245 29.0548 650.213 27.4976 656.327 27.1478C657.162 27.1026 658.008 27.0801 658.865 27.0801C663.502 27.0801 668.544 27.7346 674.14 29.0548ZM692.505 35.2608L692.764 34.6966L692.505 35.2608Z" fill="#63411F" fill-opacity="0.9"/>
<path d="M692.504 46.6228C686.637 48.6313 680.771 50.6512 674.725 52.0616C668.712 53.5398 662.508 54.465 656.359 54.1378C650.223 53.788 644.278 52.1631 638.897 49.5904C633.493 47.0291 628.62 43.6779 624.028 40.0558C619.279 36.3999 614.18 32.981 608.472 30.3632C602.798 27.768 596.412 25.9738 589.903 25.9061C583.406 25.7933 577.054 26.9781 571.03 28.7044C565.029 30.5211 559.253 32.7553 553.646 35.2603C559.513 33.2518 565.379 31.2321 571.436 29.8216C577.438 28.3435 583.654 27.4181 589.802 27.7454C595.939 28.1064 601.884 29.7087 607.265 32.2814C612.668 34.8428 617.542 38.194 622.133 41.816C626.894 45.4719 631.981 48.8909 637.689 51.5087C643.364 54.104 649.749 55.898 656.258 55.9657C662.756 56.0786 669.107 54.8938 675.12 53.1674C681.121 51.362 686.897 49.1278 692.504 46.6228Z" fill="#63411F" fill-opacity="0.9"/>
<path d="M656.248 56.5747C650.134 56.507 643.783 54.9837 637.364 52.0387C632.332 49.7255 627.346 46.6225 621.661 42.267C616.291 38.0357 611.598 35.0342 606.928 32.8113C601.445 30.1935 595.669 28.6928 589.769 28.3431C584.377 28.0497 578.432 28.7266 571.63 30.3966C565.651 31.7845 559.74 33.8156 553.919 35.8128L553.332 34.7183C559.424 31.9877 565.143 29.8325 570.817 28.1174C577.789 26.109 584.039 25.195 589.916 25.2852C596.019 25.3529 602.37 26.8762 608.812 29.8213C613.866 32.1457 618.852 35.2486 624.504 39.6041C629.851 43.8242 634.532 46.8256 639.236 49.0598C644.73 51.6889 650.506 53.1895 656.395 53.528C661.798 53.8101 667.732 53.1445 674.534 51.4745C680.513 50.0753 686.436 48.0555 692.155 46.0922L692.246 46.0583L692.821 47.1529C686.718 49.8835 680.998 52.0387 675.335 53.7425C668.713 55.6494 662.735 56.5747 657.117 56.5747C656.823 56.5747 656.53 56.5747 656.248 56.5747ZM656.304 54.7355C650.201 54.3857 644.234 52.8286 638.56 50.1205C633.754 47.8525 628.993 44.7946 623.567 40.5068C618.006 36.2191 613.098 33.1725 608.157 30.8932C601.919 28.0384 595.782 26.5602 589.905 26.5038C584.366 26.4135 578.443 27.2599 571.867 29.0991C578.556 27.4968 584.456 26.8535 589.871 27.1469C595.985 27.4967 601.964 29.054 607.616 31.762C612.399 34.0188 617.16 37.0766 622.62 41.3757C628.204 45.6635 633.111 48.7213 638.041 50.9781C644.256 53.8215 650.405 55.2996 656.293 55.3673C661.866 55.4463 667.676 54.6227 674.196 52.806C667.529 54.3857 661.674 55.0176 656.304 54.7355Z" fill="#63411F" fill-opacity="0.9"/>
<path d="M716.68 47.4572C726.957 52.3995 737.978 56.834 749.857 58.0977C755.779 58.7296 761.86 58.2557 767.466 56.5519C773.051 54.8706 778.183 51.8015 781.353 47.4911C778.037 51.7112 772.847 54.6111 767.297 56.1231C761.724 57.6577 755.734 57.9623 750.004 57.195C738.396 55.6491 727.758 51.0455 717.729 45.8776L716.68 47.4572Z" fill="#63411F" fill-opacity="0.9"/>
<path d="M727.326 41.4886V44.9526L1209.43 44.9526V354.756H1212.9V41.4886L727.326 41.4886Z" fill="#63411F" fill-opacity="0.9"/>
<path d="M727.326 873.125V876.589H1212.9V563.322H1209.43V873.125H727.326Z" fill="#63411F" fill-opacity="0.9"/>
<path d="M33.6855 41.4886L33.6855 354.756H37.1488L37.1488 44.9526L518.822 44.9526V41.4886L33.6855 41.4886Z" fill="#63411F" fill-opacity="0.9"/>
<path d="M33.6855 563.322L33.6855 876.589H518.822V873.125H37.1488L37.1488 563.322H33.6855Z" fill="#63411F" fill-opacity="0.9"/>
<path d="M1193.33 61.0534V857.012L53.2461 857.012L53.2461 61.0534L1193.33 61.0534ZM1191.61 855.285V62.7911L54.9721 62.7911L54.9721 855.285L1191.61 855.285Z" fill="#63411F" fill-opacity="0.9"/>
<path d="M1182.56 832.121C1176 820.961 1164.22 818.58 1157.57 821.131C1155.02 827.788 1157.41 839.579 1168.56 846.124C1159.68 848.967 1152.05 861.255 1156.34 870.846C1160.94 860.375 1179.39 848.324 1196.99 860.556C1184.75 842.964 1196.79 824.504 1207.27 819.901C1197.69 815.613 1185.4 823.241 1182.56 832.121Z" fill="#63411F" fill-opacity="0.9"/>
<path d="M1182.56 80.8802C1176 92.0397 1164.22 94.4205 1157.57 91.8704C1155.02 85.2131 1157.41 73.4217 1168.56 66.8772C1159.68 64.0337 1152.05 51.7458 1156.34 42.1547C1160.94 52.6259 1179.39 64.6768 1196.99 52.4454C1184.75 70.0365 1196.79 88.4966 1207.27 93.1003C1197.69 97.3994 1185.4 89.7717 1182.56 80.8802Z" fill="#63411F" fill-opacity="0.9"/>
<path d="M63.8509 835.585C70.4051 824.425 82.1937 822.044 88.8381 824.594C91.3876 831.252 88.9961 843.043 77.8505 849.588C86.7286 852.431 94.3545 864.719 90.0565 874.31C85.4539 863.839 67.0095 851.788 49.4113 864.019C61.6511 846.428 49.603 827.968 39.123 823.364C48.7231 819.077 61.0193 826.704 63.8509 835.585Z" fill="#63411F" fill-opacity="0.9"/>
<path d="M63.8509 84.344C70.4051 95.5036 82.1937 97.8844 88.8381 95.3343C91.3876 88.6769 88.9961 76.8855 77.8505 70.341C86.7286 67.4976 94.3545 55.2098 90.0565 45.6187C85.4539 56.0899 67.0095 68.1408 49.4113 55.9094C61.6511 73.5005 49.603 91.9604 39.123 96.5642C48.7231 100.863 61.0193 93.2355 63.8509 84.344Z" fill="#63411F" fill-opacity="0.9"/>
</svg>
