<svg width="1920" height="1080" viewBox="0 0 1920 1080" fill="none" xmlns="http://www.w3.org/2000/svg">
<rect width="1920" height="1080" fill="black"/>
<g filter="url(#filter0_f_195_2937)">
<path d="M937.919 382.719C1055.98 334.665 1101.39 199.513 1149.44 317.574C1197.5 435.635 965.267 751.381 847.206 799.435C729.145 847.489 769.96 609.654 721.906 491.593C673.852 373.532 819.858 430.773 937.919 382.719Z" fill="url(#paint0_linear_195_2937)"/>
</g>
<path d="M1004.05 394.995L1005.49 397.471C1005.58 397.621 1005.7 397.748 1005.84 397.84C1005.99 397.933 1006.16 397.988 1006.33 398.001L1009.19 398.211C1009.39 398.226 1009.58 398.296 1009.74 398.415C1009.9 398.533 1010.03 398.694 1010.1 398.88C1010.17 399.066 1010.2 399.269 1010.16 399.466C1010.13 399.663 1010.04 399.847 1009.9 399.995L1007.99 402.134C1007.88 402.263 1007.79 402.418 1007.75 402.586C1007.71 402.754 1007.71 402.93 1007.75 403.099L1008.42 405.868C1008.46 406.062 1008.46 406.265 1008.39 406.455C1008.33 406.645 1008.22 406.813 1008.06 406.942C1007.91 407.07 1007.72 407.153 1007.53 407.181C1007.33 407.209 1007.13 407.181 1006.94 407.1L1004.32 405.943C1004.16 405.872 1003.99 405.841 1003.82 405.853C1003.64 405.865 1003.48 405.919 1003.33 406.01L1000.89 407.509C1000.72 407.615 1000.52 407.67 1000.32 407.67C1000.12 407.669 999.922 407.612 999.752 407.505C999.582 407.399 999.446 407.247 999.359 407.066C999.271 406.886 999.236 406.685 999.257 406.485L999.552 403.652C999.57 403.479 999.546 403.305 999.481 403.144C999.416 402.983 999.313 402.84 999.181 402.728L997.001 400.865C996.848 400.736 996.735 400.566 996.673 400.376C996.612 400.185 996.606 399.981 996.654 399.787C996.703 399.593 996.806 399.416 996.95 399.277C997.094 399.138 997.274 399.042 997.47 399.001L1000.27 398.41C1000.44 398.373 1000.6 398.296 1000.73 398.185C1000.86 398.074 1000.97 397.932 1001.03 397.772L1002.12 395.125C1002.2 394.939 1002.33 394.777 1002.49 394.659C1002.65 394.541 1002.85 394.471 1003.05 394.457C1003.25 394.444 1003.45 394.487 1003.63 394.582C1003.81 394.677 1003.95 394.82 1004.05 394.995Z" fill="#FEC272"/>
<path d="M886.954 675.137L888.159 677.214C888.231 677.34 888.334 677.447 888.457 677.524C888.58 677.601 888.72 677.647 888.865 677.657L891.261 677.841C891.428 677.854 891.588 677.914 891.723 678.013C891.858 678.112 891.962 678.247 892.025 678.403C892.087 678.558 892.105 678.728 892.076 678.893C892.046 679.058 891.972 679.211 891.86 679.336L890.256 681.125C890.158 681.234 890.088 681.365 890.052 681.508C890.017 681.651 890.018 681.8 890.054 681.942L890.613 684.276C890.652 684.439 890.644 684.609 890.592 684.768C890.539 684.927 890.443 685.068 890.315 685.176C890.187 685.283 890.031 685.353 889.865 685.377C889.7 685.401 889.531 685.379 889.377 685.312L887.181 684.339C887.048 684.28 886.903 684.255 886.758 684.265C886.613 684.275 886.473 684.319 886.349 684.395L884.311 685.646C884.168 685.734 884.003 685.78 883.835 685.779C883.667 685.778 883.502 685.73 883.36 685.641C883.218 685.551 883.104 685.423 883.031 685.272C882.958 685.121 882.928 684.952 882.946 684.785L883.187 682.397C883.202 682.251 883.181 682.103 883.127 681.967C883.072 681.831 882.985 681.71 882.873 681.615L881.048 680.057C880.92 679.949 880.825 679.807 880.774 679.647C880.723 679.487 880.718 679.317 880.759 679.154C880.8 678.992 880.885 678.844 881.006 678.728C881.126 678.611 881.277 678.531 881.441 678.495L883.786 677.992C883.929 677.962 884.062 677.897 884.174 677.804C884.286 677.711 884.374 677.592 884.43 677.458L885.345 675.237C885.41 675.083 885.516 674.949 885.653 674.851C885.79 674.754 885.951 674.697 886.118 674.686C886.286 674.676 886.453 674.713 886.601 674.792C886.748 674.872 886.871 674.991 886.954 675.137Z" fill="#FEC272"/>
<path d="M816.066 619.487C810.99 610.552 824.836 599.69 837.233 599.569C849.629 599.449 855.588 610.499 860.248 614.457C869.982 622.716 870.28 631.419 864.205 635.579C858.131 639.739 822.784 631.306 816.066 619.487Z" fill="#99ADF9"/>
<path d="M1055.53 459.616C1051.72 456.705 1054.42 441.634 1062.69 437.591C1070.97 433.548 1081.79 436.629 1084.45 442.423C1087.1 448.217 1063.35 465.576 1055.53 459.616Z" fill="#99ADF9"/>
<path d="M1097.75 464.735C1096.08 467.489 1095.36 475.058 1099.34 476.128C1103.33 477.198 1105.75 469.297 1104.11 465.379C1102.47 461.462 1098.86 462.896 1097.75 464.735Z" fill="#99ADF9"/>
<path opacity="0.44" d="M1096.45 403.793C1093.64 405.357 1089.25 411.562 1092.18 414.472C1095.11 417.382 1101.13 411.726 1101.65 407.514C1102.18 403.302 1098.33 402.75 1096.45 403.793Z" fill="#99ADF9"/>
<path opacity="0.44" d="M839.118 656.967C836.47 655.136 828.965 653.934 827.645 657.845C826.325 661.757 834.06 664.648 838.06 663.277C842.059 661.906 840.88 658.191 839.118 656.967Z" fill="#99ADF9"/>
<g style="mix-blend-mode:multiply" opacity="0.64">
<path d="M857.888 612.073C853.475 613.214 854.465 617.163 856.142 620.688C857.819 624.212 862.93 624.905 866.264 621.356C863.585 616.017 857.888 612.073 857.888 612.073Z" fill="#99ADF9"/>
</g>
<g style="mix-blend-mode:multiply" opacity="0.64">
<path d="M831.789 607.774C828.612 608.346 826.316 613.156 828.826 616.761C831.336 620.366 835.822 622.813 838.214 621.623C840.606 620.433 840.645 614.867 838.628 611.433C836.612 608 834.843 607.223 831.789 607.774Z" fill="#99ADF9"/>
</g>
<g style="mix-blend-mode:multiply" opacity="0.64">
<path d="M1074.25 440.02C1072.53 440.699 1070.88 442.719 1071.17 444.762C1071.47 446.804 1073.38 448.476 1075.31 448.1C1077.24 447.725 1078.68 444.472 1078.13 442.242C1077.58 440.013 1075.56 439.505 1074.25 440.02Z" fill="#99ADF9"/>
</g>
<g style="mix-blend-mode:multiply" opacity="0.64">
<path d="M1055.92 445.275C1055.92 445.275 1058.48 447.514 1058.26 450.266C1058.05 453.018 1053.89 453.045 1053.89 453.045C1053.89 453.045 1054.2 448.358 1055.92 445.275Z" fill="#99ADF9"/>
</g>
<defs>
<filter id="filter0_f_195_2937" x="502.508" y="60.4463" width="863.389" height="955.312" filterUnits="userSpaceOnUse" color-interpolation-filters="sRGB">
<feFlood flood-opacity="0" result="BackgroundImageFix"/>
<feBlend mode="normal" in="SourceGraphic" in2="BackgroundImageFix" result="shape"/>
<feGaussianBlur stdDeviation="105" result="effect1_foregroundBlur_195_2937"/>
</filter>
<linearGradient id="paint0_linear_195_2937" x1="794.734" y1="820.792" x2="672.056" y2="388.965" gradientUnits="userSpaceOnUse">
<stop stop-color="#6DDCFF"/>
<stop offset="1" stop-color="#7F60F9"/>
</linearGradient>
</defs>
</svg>
