<svg width="118" height="118" viewBox="0 0 118 118" fill="none" xmlns="http://www.w3.org/2000/svg">
<path fill-rule="evenodd" clip-rule="evenodd" d="M56.5811 25.6268C55.8872 31.1775 53.9801 36.3481 51.1269 40.8608C45.9451 39.875 40.9234 37.7757 36.4334 34.5557L33.1266 32.1842L32.1842 33.1267L34.5557 36.4334C37.8563 41.0358 39.9794 46.1968 40.9327 51.5163C36.4972 54.6036 31.3465 56.7518 25.7582 57.6722L21.7431 58.3336V59.6664L25.7582 60.3278C31.2101 61.2258 36.2454 63.2922 40.6065 66.2592C39.4331 71.4677 37.1255 76.4725 33.6912 80.8881L25.0362 92.0161L25.984 92.9639L37.112 84.3089C41.4151 80.9621 46.2777 78.6853 51.3431 77.4854C54.0765 81.9156 55.9049 86.964 56.5811 92.3732L58.3298 106.362H59.6702L61.4189 92.3732C62.1128 86.8225 64.0199 81.6519 66.8731 77.1392C72.0549 78.125 77.0766 80.2243 81.5666 83.4444L84.8734 85.8159L85.8158 84.8734L83.4444 81.5666C80.1437 76.9642 78.0206 71.8032 77.0673 66.4837C81.5028 63.3964 86.6535 61.2483 92.2417 60.3278L96.2569 59.6664L96.2569 58.3336L92.2417 57.6722C86.7899 56.7742 81.7547 54.7078 77.3935 51.7408C78.5669 46.5324 80.8745 41.5276 84.3089 37.112L92.9639 25.984L92.0161 25.0362L80.888 33.6912C76.5849 37.038 71.7223 39.3148 66.6569 40.5146C63.9235 36.0844 62.0951 31.0361 61.4189 25.6268L59.6702 11.6381H58.3298L56.5811 25.6268ZM59 17.1668L57.9215 25.7944C57.2267 31.3523 55.3581 36.5425 52.5656 41.1054C56.7802 41.7368 61.0772 41.6395 65.2598 40.8173C62.5639 36.3246 60.7587 31.2357 60.0785 25.7943L59 17.1668ZM35.6715 35.6715C38.9495 40.2501 41.104 45.361 42.1421 50.6379C45.3068 48.2406 48.0706 45.3493 50.3229 42.0788C45.1576 41.0178 40.1589 38.8842 35.6715 35.6715ZM51.7722 42.3477C49.2515 46.1328 46.0776 49.4457 42.4046 52.126C43.1066 56.6184 43.0083 61.2053 42.1142 65.6642C46.0103 68.4521 49.3573 71.9465 51.975 75.96C56.6639 74.973 61.5014 74.8688 66.2278 75.6524C68.7485 71.8672 71.9224 68.5543 75.5954 65.874C74.8935 61.3816 74.9917 56.7947 75.8858 52.3359C71.9897 49.5479 68.6427 46.0535 66.025 42.0401C61.3361 43.0271 56.4985 43.1313 51.7722 42.3477ZM26.0084 59C31.5639 58.0804 36.7014 55.9899 41.1668 52.9926C41.7094 56.9255 41.6192 60.9243 40.8992 64.8295C36.4966 61.9274 31.4533 59.9013 26.0084 59ZM34.7574 81.7174C38.1962 77.296 40.545 72.3047 41.7968 67.1037C45.2234 69.6374 48.1931 72.7446 50.5692 76.2835C45.4861 77.5541 40.6113 79.876 36.2827 83.2426L29.4195 88.5806L34.7574 81.7174ZM57.9215 92.2057C57.2413 86.7644 55.436 81.6755 52.7402 77.1828C56.9228 76.3606 61.2198 76.2633 65.4343 76.8947C62.6418 81.4575 60.7733 86.6477 60.0785 92.2057L59 100.833L57.9215 92.2057ZM82.3286 82.3286C77.8411 79.1158 72.8424 76.9823 67.6771 75.9212C69.9294 72.6507 72.6932 69.7594 75.8579 67.3621C76.896 72.639 79.0505 77.75 82.3286 82.3286ZM91.9915 59C86.4361 59.9196 81.2986 62.0101 76.8332 65.0074C76.2906 61.0745 76.3808 57.0758 77.1008 53.1706C81.5034 56.0727 86.5467 58.0987 91.9915 59ZM83.2426 36.2827C79.8038 40.704 77.455 45.6954 76.2032 50.8964C72.7766 48.3627 69.807 45.2555 67.4308 41.7166C72.5139 40.446 77.3888 38.1241 81.7173 34.7575L88.5806 29.4195L83.2426 36.2827Z" fill="white"/>
<path fill-rule="evenodd" clip-rule="evenodd" d="M118 59C118 91.5848 91.5848 118 59 118C26.4152 118 0 91.5848 0 59C0 26.4152 26.4152 0 59 0C91.5848 0 118 26.4152 118 59ZM116.649 59C116.649 90.8388 90.8388 116.649 59 116.649C27.1612 116.649 1.3508 90.8388 1.3508 59C1.3508 27.1612 27.1612 1.3508 59 1.3508C90.8388 1.3508 116.649 27.1612 116.649 59Z" fill="white"/>
</svg>
