<svg width="1684" height="924" viewBox="0 0 1684 924" fill="none" xmlns="http://www.w3.org/2000/svg">
<path d="M25.0449 75.1348H0L12.5224 62.6123L25.0449 75.1348Z" fill="#86F5FF"/>
<path d="M68.8764 18.7837L18.7866 68.8735" stroke="#86F5FF" stroke-width="17.7193"/>
<path d="M75.1343 25.0449L75.1343 0L62.6118 12.5224L75.1343 25.0449Z" fill="#86F5FF"/>
<rect x="75.1348" width="93.9184" height="12.5221" fill="#86F5FF"/>
<path d="M75.1348 25.0444V12.522H87.6572L75.1348 25.0444Z" fill="#86F5FF"/>
<rect y="169.053" width="6.26122" height="100.18" fill="#86F5FF"/>
<path d="M6.26221 175.314V169.053H12.5234L6.26221 175.314Z" fill="#86F5FF"/>
<path d="M6.26221 269.232V262.971L12.5234 269.232H6.26221Z" fill="#86F5FF"/>
<rect x="169.053" width="93.9184" height="6.26091" fill="#86F5FF"/>
<path d="M169.054 12.522V6.26074H175.315L169.054 12.522Z" fill="#86F5FF"/>
<path d="M262.972 12.522V6.26074H256.71L262.972 12.522Z" fill="#86F5FF"/>
<rect y="75.1348" width="12.5224" height="93.9184" fill="#86F5FF"/>
<path d="M12.5225 87.6572V75.1348H25.0449L12.5225 87.6572Z" fill="#86F5FF"/>
<path d="M262.971 1.23978e-05L262.971 12.5225L269.232 6.26124L262.971 1.23978e-05Z" fill="#86F5FF"/>
<path d="M266.102 9.3916L272.363 15.6528" stroke="#86F5FF" stroke-width="8.85963"/>
<path d="M275.49 12.5225L275.49 25.0449L269.229 18.7837L275.49 12.5225Z" fill="#86F5FF"/>
<path d="M12.5229 269.232H0.000488281L6.26171 275.494L12.5229 269.232Z" fill="#86F5FF"/>
<path d="M9.39261 272.363L40.6987 303.669" stroke="#86F5FF" stroke-width="8.85963"/>
<path d="M50.0874 306.8H37.5649L43.8262 300.539L50.0874 306.8Z" fill="#86F5FF"/>
<rect x="43.8291" y="306.8" width="6.26122" height="84.5265" fill="#86F5FF"/>
<path d="M43.8291 313.061V306.8H37.5679L43.8291 313.061Z" fill="#86F5FF"/>
<path d="M50.0905 398.877V391.327H43.8296L50.0905 398.877Z" fill="#86F5FF"/>
<path d="M641.775 6.26124L641.775 12.5225L644.906 9.39185L641.775 6.26124Z" fill="#86F5FF"/>
<path d="M643.344 10.957L655.866 23.4795" stroke="#86F5FF" stroke-width="4.41416"/>
<path d="M657.428 21.9141L657.428 28.1753L654.297 25.0447L657.428 21.9141Z" fill="#86F5FF"/>
<path d="M657.429 21.9141L657.429 40.6978L666.821 31.3059L657.429 21.9141Z" fill="#86F5FF"/>
<path d="M662.127 36.002L690.303 64.1775" stroke="#86F5FF" stroke-width="13.2738"/>
<path d="M694.996 59.4815L694.996 78.2651L685.604 68.8733L694.996 59.4815Z" fill="#86F5FF"/>
<rect x="288.016" y="6.26123" width="353.759" height="3.1303" fill="#86F5FF"/>
<path d="M641.775 12.5222V9.3916H638.645L641.775 12.5222Z" fill="#86F5FF"/>
<path d="M288.016 9.39184V6.26123H284.886L288.016 9.39184Z" fill="#86F5FF"/>
<rect x="275.493" y="18.7837" width="360.02" height="6.26091" fill="#86F5FF"/>
<path d="M275.492 18.7832V12.522L281.753 18.7832H275.492Z" fill="#86F5FF"/>
<path d="M635.514 25.0449V18.7837L641.775 25.0449H635.514Z" fill="#86F5FF"/>
<g opacity="0.4">
<path d="M12.5225 325.583V313.061L25.0449 325.583H12.5225Z" fill="#86F5FF"/>
<rect x="12.5225" y="325.583" width="12.5224" height="40.9796" fill="#86F5FF"/>
<path d="M25.0449 379.085V366.563H12.5225L25.0449 379.085Z" fill="#86F5FF"/>
</g>
<path d="M25.0449 848.306H0L12.5224 860.829L25.0449 848.306Z" fill="#86F5FF"/>
<path d="M68.8764 904.657L18.7866 854.567" stroke="#86F5FF" stroke-width="17.7193"/>
<path d="M75.1343 898.396L75.1343 923.441L62.6118 910.918L75.1343 898.396Z" fill="#86F5FF"/>
<rect width="93.9184" height="12.5221" transform="matrix(1 0 0 -1 75.1348 923.441)" fill="#86F5FF"/>
<path d="M75.1348 898.396V910.919H87.6572L75.1348 898.396Z" fill="#86F5FF"/>
<rect width="6.26122" height="100.18" transform="matrix(1 0 0 -1 0 754.388)" fill="#86F5FF"/>
<path d="M6.26221 748.126V754.388H12.5234L6.26221 748.126Z" fill="#86F5FF"/>
<path d="M6.26221 654.209V660.47L12.5234 654.209H6.26221Z" fill="#86F5FF"/>
<rect width="93.9184" height="6.26091" transform="matrix(1 0 0 -1 169.053 923.441)" fill="#86F5FF"/>
<path d="M169.054 910.919V917.18H175.315L169.054 910.919Z" fill="#86F5FF"/>
<path d="M262.972 910.919V917.18H256.71L262.972 910.919Z" fill="#86F5FF"/>
<rect width="12.5224" height="93.9184" transform="matrix(1 0 0 -1 0 848.306)" fill="#86F5FF"/>
<path d="M12.5225 835.784V848.306H25.0449L12.5225 835.784Z" fill="#86F5FF"/>
<path d="M262.971 923.441L262.971 910.918L269.232 917.18L262.971 923.441Z" fill="#86F5FF"/>
<path d="M266.102 914.049L272.363 907.788" stroke="#86F5FF" stroke-width="8.85963"/>
<path d="M275.49 910.918L275.49 898.396L269.229 904.657L275.49 910.918Z" fill="#86F5FF"/>
<path d="M12.5229 654.208H0.000488281L6.26171 647.947L12.5229 654.208Z" fill="#86F5FF"/>
<path d="M9.39261 651.078L40.6987 619.772" stroke="#86F5FF" stroke-width="8.85963"/>
<path d="M50.0874 616.641H37.5649L43.8262 622.902L50.0874 616.641Z" fill="#86F5FF"/>
<rect width="6.26122" height="84.5265" transform="matrix(1 0 0 -1 43.8291 616.641)" fill="#86F5FF"/>
<path d="M43.8291 610.38V616.641H37.5679L43.8291 610.38Z" fill="#86F5FF"/>
<path d="M50.0905 524.564V532.114H43.8296L50.0905 524.564Z" fill="#86F5FF"/>
<path d="M641.775 917.18L641.775 910.918L644.906 914.049L641.775 917.18Z" fill="#86F5FF"/>
<path d="M643.344 912.484L655.866 899.961" stroke="#86F5FF" stroke-width="4.41416"/>
<path d="M657.428 901.527L657.428 895.266L654.297 898.396L657.428 901.527Z" fill="#86F5FF"/>
<path d="M657.429 901.527L657.429 882.743L666.821 892.135L657.429 901.527Z" fill="#86F5FF"/>
<path d="M662.127 887.439L690.303 859.263" stroke="#86F5FF" stroke-width="13.2738"/>
<path d="M694.996 863.959L694.996 845.176L685.604 854.568L694.996 863.959Z" fill="#86F5FF"/>
<rect width="353.759" height="3.1303" transform="matrix(1 0 0 -1 288.016 917.18)" fill="#86F5FF"/>
<path d="M641.775 910.919V914.049H638.645L641.775 910.919Z" fill="#86F5FF"/>
<path d="M288.016 914.049V917.18H284.886L288.016 914.049Z" fill="#86F5FF"/>
<rect width="360.02" height="6.26091" transform="matrix(1 0 0 -1 275.493 904.657)" fill="#86F5FF"/>
<path d="M275.492 904.658V910.919L281.753 904.658H275.492Z" fill="#86F5FF"/>
<path d="M635.514 898.396V904.657L641.775 898.396H635.514Z" fill="#86F5FF"/>
<g opacity="0.4">
<path d="M12.5225 597.857V610.38L25.0449 597.857H12.5225Z" fill="#86F5FF"/>
<rect width="12.5224" height="40.9796" transform="matrix(1 0 0 -1 12.5225 597.857)" fill="#86F5FF"/>
<path d="M25.0449 544.355V556.878H12.5225L25.0449 544.355Z" fill="#86F5FF"/>
</g>
<path d="M1658.96 75.1348H1684L1671.48 62.6123L1658.96 75.1348Z" fill="#86F5FF"/>
<path d="M1615.12 18.7837L1665.21 68.8735" stroke="#86F5FF" stroke-width="17.7193"/>
<path d="M1608.87 25.0449L1608.87 0L1621.39 12.5224L1608.87 25.0449Z" fill="#86F5FF"/>
<rect width="93.9184" height="12.5221" transform="matrix(-1 0 0 1 1608.87 0)" fill="#86F5FF"/>
<path d="M1608.87 25.0444V12.522H1596.34L1608.87 25.0444Z" fill="#86F5FF"/>
<rect width="6.26122" height="100.18" transform="matrix(-1 0 0 1 1684 169.053)" fill="#86F5FF"/>
<path d="M1677.74 175.314V169.053H1671.48L1677.74 175.314Z" fill="#86F5FF"/>
<path d="M1677.74 269.232V262.971L1671.48 269.232H1677.74Z" fill="#86F5FF"/>
<rect width="93.9184" height="6.26091" transform="matrix(-1 0 0 1 1514.95 0)" fill="#86F5FF"/>
<path d="M1514.95 12.522V6.26074H1508.69L1514.95 12.522Z" fill="#86F5FF"/>
<path d="M1421.03 12.522V6.26074H1427.29L1421.03 12.522Z" fill="#86F5FF"/>
<rect width="12.5224" height="93.9184" transform="matrix(-1 0 0 1 1684 75.1348)" fill="#86F5FF"/>
<path d="M1671.48 87.6572V75.1348H1658.96L1671.48 87.6572Z" fill="#86F5FF"/>
<path d="M1421.03 1.23978e-05L1421.03 12.5225L1414.77 6.26124L1421.03 1.23978e-05Z" fill="#86F5FF"/>
<path d="M1417.9 9.3916L1411.64 15.6528" stroke="#86F5FF" stroke-width="8.85963"/>
<path d="M1408.51 12.5225L1408.51 25.0449L1414.77 18.7837L1408.51 12.5225Z" fill="#86F5FF"/>
<path d="M1671.48 269.232H1684L1677.74 275.494L1671.48 269.232Z" fill="#86F5FF"/>
<path d="M1674.61 272.363L1643.3 303.669" stroke="#86F5FF" stroke-width="8.85963"/>
<path d="M1633.91 306.8H1646.44L1640.17 300.539L1633.91 306.8Z" fill="#86F5FF"/>
<rect width="6.26122" height="84.5265" transform="matrix(-1 0 0 1 1640.17 306.8)" fill="#86F5FF"/>
<path d="M1640.17 313.061V306.8H1646.43L1640.17 313.061Z" fill="#86F5FF"/>
<path d="M1633.91 398.877V391.327H1640.17L1633.91 398.877Z" fill="#86F5FF"/>
<path d="M1042.22 6.26124L1042.22 12.5225L1039.09 9.39185L1042.22 6.26124Z" fill="#86F5FF"/>
<path d="M1040.66 10.957L1028.13 23.4795" stroke="#86F5FF" stroke-width="4.41416"/>
<path d="M1026.57 21.9141L1026.57 28.1753L1029.7 25.0447L1026.57 21.9141Z" fill="#86F5FF"/>
<path d="M1026.57 21.9141L1026.57 40.6978L1017.18 31.3059L1026.57 21.9141Z" fill="#86F5FF"/>
<path d="M1021.87 36.002L993.697 64.1775" stroke="#86F5FF" stroke-width="13.2738"/>
<path d="M989.004 59.4815L989.004 78.2651L998.396 68.8733L989.004 59.4815Z" fill="#86F5FF"/>
<rect width="353.759" height="3.1303" transform="matrix(-1 0 0 1 1395.98 6.26123)" fill="#86F5FF"/>
<path d="M1042.22 12.5222V9.3916H1045.36L1042.22 12.5222Z" fill="#86F5FF"/>
<path d="M1395.98 9.39184V6.26123H1399.11L1395.98 9.39184Z" fill="#86F5FF"/>
<rect width="360.02" height="6.26091" transform="matrix(-1 0 0 1 1408.51 18.7837)" fill="#86F5FF"/>
<path d="M1408.51 18.7832V12.522L1402.24 18.7832H1408.51Z" fill="#86F5FF"/>
<path d="M1048.49 25.0449V18.7837L1042.22 25.0449H1048.49Z" fill="#86F5FF"/>
<g opacity="0.4">
<path d="M1671.48 325.583V313.061L1658.96 325.583H1671.48Z" fill="#86F5FF"/>
<rect width="12.5224" height="40.9796" transform="matrix(-1 0 0 1 1671.48 325.583)" fill="#86F5FF"/>
<path d="M1658.96 379.085V366.563H1671.48L1658.96 379.085Z" fill="#86F5FF"/>
</g>
<path d="M1658.96 848.306H1684L1671.48 860.829L1658.96 848.306Z" fill="#86F5FF"/>
<path d="M1615.12 904.657L1665.21 854.567" stroke="#86F5FF" stroke-width="17.7193"/>
<path d="M1608.87 898.396L1608.87 923.441L1621.39 910.918L1608.87 898.396Z" fill="#86F5FF"/>
<rect x="1608.87" y="923.441" width="93.9184" height="12.5221" transform="rotate(180 1608.87 923.441)" fill="#86F5FF"/>
<path d="M1608.87 898.396V910.919H1596.34L1608.87 898.396Z" fill="#86F5FF"/>
<rect x="1684" y="754.388" width="6.26122" height="100.18" transform="rotate(180 1684 754.388)" fill="#86F5FF"/>
<path d="M1677.74 748.126V754.388H1671.48L1677.74 748.126Z" fill="#86F5FF"/>
<path d="M1677.74 654.209V660.47L1671.48 654.209H1677.74Z" fill="#86F5FF"/>
<rect x="1514.95" y="923.441" width="93.9184" height="6.26091" transform="rotate(180 1514.95 923.441)" fill="#86F5FF"/>
<path d="M1514.95 910.919V917.18H1508.69L1514.95 910.919Z" fill="#86F5FF"/>
<path d="M1421.03 910.919V917.18H1427.29L1421.03 910.919Z" fill="#86F5FF"/>
<rect x="1684" y="848.306" width="12.5224" height="93.9184" transform="rotate(180 1684 848.306)" fill="#86F5FF"/>
<path d="M1671.48 835.784V848.306H1658.96L1671.48 835.784Z" fill="#86F5FF"/>
<path d="M1421.03 923.441L1421.03 910.918L1414.77 917.18L1421.03 923.441Z" fill="#86F5FF"/>
<path d="M1417.9 914.049L1411.64 907.788" stroke="#86F5FF" stroke-width="8.85963"/>
<path d="M1408.51 910.918L1408.51 898.396L1414.77 904.657L1408.51 910.918Z" fill="#86F5FF"/>
<path d="M1671.48 654.208H1684L1677.74 647.947L1671.48 654.208Z" fill="#86F5FF"/>
<path d="M1674.61 651.078L1643.3 619.772" stroke="#86F5FF" stroke-width="8.85963"/>
<path d="M1633.91 616.641H1646.44L1640.17 622.902L1633.91 616.641Z" fill="#86F5FF"/>
<rect x="1640.17" y="616.641" width="6.26122" height="84.5265" transform="rotate(180 1640.17 616.641)" fill="#86F5FF"/>
<path d="M1640.17 610.38V616.641H1646.43L1640.17 610.38Z" fill="#86F5FF"/>
<path d="M1633.91 524.564V532.114H1640.17L1633.91 524.564Z" fill="#86F5FF"/>
<path d="M1042.22 917.18L1042.22 910.918L1039.09 914.049L1042.22 917.18Z" fill="#86F5FF"/>
<path d="M1040.66 912.484L1028.13 899.961" stroke="#86F5FF" stroke-width="4.41416"/>
<path d="M1026.57 901.527L1026.57 895.266L1029.7 898.396L1026.57 901.527Z" fill="#86F5FF"/>
<path d="M1026.57 901.527L1026.57 882.743L1017.18 892.135L1026.57 901.527Z" fill="#86F5FF"/>
<path d="M1021.87 887.439L993.697 859.263" stroke="#86F5FF" stroke-width="13.2738"/>
<path d="M989.004 863.959L989.004 845.176L998.396 854.568L989.004 863.959Z" fill="#86F5FF"/>
<rect x="1395.98" y="917.18" width="353.759" height="3.1303" transform="rotate(180 1395.98 917.18)" fill="#86F5FF"/>
<path d="M1042.22 910.919V914.049H1045.36L1042.22 910.919Z" fill="#86F5FF"/>
<path d="M1395.98 914.049V917.18H1399.11L1395.98 914.049Z" fill="#86F5FF"/>
<rect x="1408.51" y="904.657" width="360.02" height="6.26091" transform="rotate(180 1408.51 904.657)" fill="#86F5FF"/>
<path d="M1408.51 904.658V910.919L1402.24 904.658H1408.51Z" fill="#86F5FF"/>
<path d="M1048.49 898.396V904.657L1042.22 898.396H1048.49Z" fill="#86F5FF"/>
<g opacity="0.4">
<path d="M1671.48 597.857V610.38L1658.96 597.857H1671.48Z" fill="#86F5FF"/>
<rect x="1671.48" y="597.857" width="12.5224" height="40.9796" transform="rotate(180 1671.48 597.857)" fill="#86F5FF"/>
<path d="M1658.96 544.355V556.878H1671.48L1658.96 544.355Z" fill="#86F5FF"/>
</g>
</svg>
