<svg width="35" height="21" viewBox="0 0 35 21" fill="none" xmlns="http://www.w3.org/2000/svg">
<path d="M11.6667 0H23.3333V2.91667H11.6667V0ZM5.83333 5.83333V2.91667H11.6667V5.83333H5.83333ZM2.91667 8.75V5.83333H5.83333V8.75H2.91667ZM2.91667 11.6667V8.75H0V11.6667H2.91667ZM5.83333 14.5833H2.91667V11.6667H5.83333V14.5833ZM11.6667 17.5H5.83333V14.5833H11.6667V17.5ZM23.3333 17.5V20.4167H11.6667V17.5H23.3333ZM29.1667 14.5833V17.5H23.3333V14.5833H29.1667ZM32.0833 11.6667V14.5833H29.1667V11.6667H32.0833ZM32.0833 8.75H35V11.6667H32.0833V8.75ZM29.1667 5.83333H32.0833V8.75H29.1667V5.83333ZM29.1667 5.83333V2.91667H23.3333V5.83333H29.1667ZM14.5833 7.29167H20.4167V13.125H14.5833V7.29167Z" fill="#86F5FF"/>
</svg>
