<svg width="944" height="303" viewBox="0 0 944 303" fill="none" xmlns="http://www.w3.org/2000/svg">
<path d="M11 23H5L8 20L11 23Z" fill="#86F5FF"/>
<path d="M20.501 10.5L9.50098 21.5" stroke="#86F5FF" stroke-width="4.24"/>
<path d="M22 12L22 6L19 9L22 12Z" fill="#86F5FF"/>
<path d="M51 9V6H54L51 9Z" fill="#86F5FF"/>
<rect x="22" y="6" width="29" height="0.9999" fill="#86F5FF"/>
<path d="M22 8V7H23L22 8Z" fill="#86F5FF"/>
<path d="M51 8V7H50L51 8Z" fill="#86F5FF"/>
<rect x="5" y="23" width="1" height="29" fill="#86F5FF"/>
<path d="M6 24V23H7L6 24Z" fill="#86F5FF"/>
<path d="M6 52V51L7 52H6Z" fill="#86F5FF"/>
<path d="M5 55V52H8L5 55Z" fill="#86F5FF"/>
<g opacity="0.4">
<path d="M21 24H17L19 22L21 24Z" fill="#86F5FF"/>
<path d="M22.001 21L20.001 23" stroke="#86F5FF" stroke-width="2.83"/>
<path d="M23 22L23 18L21 20L23 22Z" fill="#86F5FF"/>
</g>
<path d="M24 29L24 31L25 30L24 29Z" fill="#86F5FF"/>
<path d="M28.501 25.5L24.501 29.5" stroke="#86F5FF" stroke-width="1.41"/>
<path d="M30 25H28L29 26L30 25Z" fill="#86F5FF"/>
<path d="M11 280H5L8 283L11 280Z" fill="#86F5FF"/>
<path d="M20.501 292.5L9.50098 281.5" stroke="#86F5FF" stroke-width="4.24"/>
<path d="M22 291L22 297L19 294L22 291Z" fill="#86F5FF"/>
<path d="M51 294V297H54L51 294Z" fill="#86F5FF"/>
<rect width="29" height="0.9999" transform="matrix(1 0 0 -1 22 297)" fill="#86F5FF"/>
<path d="M22 295V296H23L22 295Z" fill="#86F5FF"/>
<path d="M51 295V296H50L51 295Z" fill="#86F5FF"/>
<rect width="1" height="29" transform="matrix(1 0 0 -1 5 280)" fill="#86F5FF"/>
<path d="M6 279V280H7L6 279Z" fill="#86F5FF"/>
<path d="M6 251V252L7 251H6Z" fill="#86F5FF"/>
<path d="M5 248V251H8L5 248Z" fill="#86F5FF"/>
<g opacity="0.4">
<path d="M21 279H17L19 281L21 279Z" fill="#86F5FF"/>
<path d="M22.001 282L20.001 280" stroke="#86F5FF" stroke-width="2.83"/>
<path d="M23 281L23 285L21 283L23 281Z" fill="#86F5FF"/>
</g>
<path d="M24 274L24 272L25 273L24 274Z" fill="#86F5FF"/>
<path d="M28.501 277.5L24.501 273.5" stroke="#86F5FF" stroke-width="1.41"/>
<path d="M30 278H28L29 277L30 278Z" fill="#86F5FF"/>
<path d="M933 23H939L936 20L933 23Z" fill="#86F5FF"/>
<path d="M923.499 10.5L934.499 21.5" stroke="#86F5FF" stroke-width="4.24"/>
<path d="M922 12L922 6L925 9L922 12Z" fill="#86F5FF"/>
<path d="M893 9V6H890L893 9Z" fill="#86F5FF"/>
<rect width="29" height="0.9999" transform="matrix(-1 0 0 1 922 6)" fill="#86F5FF"/>
<path d="M922 8V7H921L922 8Z" fill="#86F5FF"/>
<path d="M893 8V7H894L893 8Z" fill="#86F5FF"/>
<rect width="1" height="29" transform="matrix(-1 0 0 1 939 23)" fill="#86F5FF"/>
<path d="M938 24V23H937L938 24Z" fill="#86F5FF"/>
<path d="M938 52V51L937 52H938Z" fill="#86F5FF"/>
<path d="M939 55V52H936L939 55Z" fill="#86F5FF"/>
<g opacity="0.4">
<path d="M923 24H927L925 22L923 24Z" fill="#86F5FF"/>
<path d="M921.999 21L923.999 23" stroke="#86F5FF" stroke-width="2.83"/>
<path d="M921 22L921 18L923 20L921 22Z" fill="#86F5FF"/>
</g>
<path d="M920 29L920 31L919 30L920 29Z" fill="#86F5FF"/>
<path d="M915.499 25.5L919.499 29.5" stroke="#86F5FF" stroke-width="1.41"/>
<path d="M914 25H916L915 26L914 25Z" fill="#86F5FF"/>
<path d="M933 280H939L936 283L933 280Z" fill="#86F5FF"/>
<path d="M923.499 292.5L934.499 281.5" stroke="#86F5FF" stroke-width="4.24"/>
<path d="M922 291L922 297L925 294L922 291Z" fill="#86F5FF"/>
<path d="M893 294V297H890L893 294Z" fill="#86F5FF"/>
<rect x="922" y="297" width="29" height="0.9999" transform="rotate(180 922 297)" fill="#86F5FF"/>
<path d="M922 295V296H921L922 295Z" fill="#86F5FF"/>
<path d="M893 295V296H894L893 295Z" fill="#86F5FF"/>
<rect x="939" y="280" width="1" height="29" transform="rotate(180 939 280)" fill="#86F5FF"/>
<path d="M938 279V280H937L938 279Z" fill="#86F5FF"/>
<path d="M938 251V252L937 251H938Z" fill="#86F5FF"/>
<path d="M939 248V251H936L939 248Z" fill="#86F5FF"/>
<g opacity="0.4">
<path d="M923 279H927L925 281L923 279Z" fill="#86F5FF"/>
<path d="M921.999 282L923.999 280" stroke="#86F5FF" stroke-width="2.83"/>
<path d="M921 281L921 285L923 283L921 281Z" fill="#86F5FF"/>
</g>
<path d="M920 274L920 272L919 273L920 274Z" fill="#86F5FF"/>
<path d="M915.499 277.5L919.499 273.5" stroke="#86F5FF" stroke-width="1.41"/>
<path d="M914 278H916L915 277L914 278Z" fill="#86F5FF"/>
<g opacity="0.3">
<rect x="48" y="12" width="848" height="1.9999" fill="#86F5FF" fill-opacity="0.6"/>
<path d="M48 16V14H50L48 16Z" fill="#86F5FF" fill-opacity="0.6"/>
<path d="M896 16V14H894L896 16Z" fill="#86F5FF" fill-opacity="0.6"/>
</g>
<g opacity="0.3">
<rect x="40" y="20" width="1" height="5" fill="#86F5FF" fill-opacity="0.6"/>
<path d="M41 21V20H42L41 21Z" fill="#86F5FF" fill-opacity="0.6"/>
<path d="M40 25V24L39 25H40Z" fill="#86F5FF" fill-opacity="0.6"/>
<path d="M44 20H40L42 18L44 20Z" fill="#86F5FF" fill-opacity="0.6"/>
<path d="M47.001 15L43.001 19" stroke="#86F5FF" stroke-opacity="0.6" stroke-width="2.83"/>
<path d="M48 16L48 12L46 14L48 16Z" fill="#86F5FF" fill-opacity="0.6"/>
<path d="M37 29H35L36 28L37 29Z" fill="#86F5FF" fill-opacity="0.6"/>
<path d="M39.501 25.5L36.501 28.5" stroke="#86F5FF" stroke-opacity="0.6" stroke-width="1.41"/>
<path d="M41 25H39L40 26L41 25Z" fill="#86F5FF" fill-opacity="0.6"/>
</g>
<g opacity="0.3">
<rect x="903" y="20" width="1" height="5" fill="#86F5FF" fill-opacity="0.6"/>
<path d="M903 21V20H902L903 21Z" fill="#86F5FF" fill-opacity="0.6"/>
<path d="M904 25V24L905 25H904Z" fill="#86F5FF" fill-opacity="0.6"/>
<path d="M896 16L896 12L898 14L896 16Z" fill="#86F5FF" fill-opacity="0.6"/>
<path d="M897 15L901 19" stroke="#86F5FF" stroke-opacity="0.6" stroke-width="2.83"/>
<path d="M903.999 20H899.999L901.999 18L903.999 20Z" fill="#86F5FF" fill-opacity="0.6"/>
<path d="M905 25H903L904 26L905 25Z" fill="#86F5FF" fill-opacity="0.6"/>
<path d="M904.501 25.5L907.501 28.5" stroke="#86F5FF" stroke-opacity="0.6" stroke-width="1.41"/>
<path d="M909 29H907L908 28L909 29Z" fill="#86F5FF" fill-opacity="0.6"/>
</g>
<path d="M51 17V16L50 17H51Z" fill="#86F5FF" fill-opacity="0.6"/>
<rect x="51" y="16" width="842" height="1" fill="#86F5FF" fill-opacity="0.6"/>
<path d="M893 17V16L894 17H893Z" fill="#86F5FF" fill-opacity="0.6"/>
<g opacity="0.3">
<rect width="848" height="1.9999" transform="matrix(1 0 0 -1 48 291)" fill="#86F5FF" fill-opacity="0.6"/>
<path d="M48 287V289H50L48 287Z" fill="#86F5FF" fill-opacity="0.6"/>
<path d="M896 287V289H894L896 287Z" fill="#86F5FF" fill-opacity="0.6"/>
</g>
<g opacity="0.3">
<rect width="1" height="5" transform="matrix(1 0 0 -1 40 283)" fill="#86F5FF" fill-opacity="0.6"/>
<path d="M41 282V283H42L41 282Z" fill="#86F5FF" fill-opacity="0.6"/>
<path d="M40 278V279L39 278H40Z" fill="#86F5FF" fill-opacity="0.6"/>
<path d="M44 283H40L42 285L44 283Z" fill="#86F5FF" fill-opacity="0.6"/>
<path d="M47.001 288L43.001 284" stroke="#86F5FF" stroke-opacity="0.6" stroke-width="2.83"/>
<path d="M48 287L48 291L46 289L48 287Z" fill="#86F5FF" fill-opacity="0.6"/>
<path d="M37 274H35L36 275L37 274Z" fill="#86F5FF" fill-opacity="0.6"/>
<path d="M39.501 277.5L36.501 274.5" stroke="#86F5FF" stroke-opacity="0.6" stroke-width="1.41"/>
<path d="M41 278H39L40 277L41 278Z" fill="#86F5FF" fill-opacity="0.6"/>
</g>
<g opacity="0.3">
<rect width="1" height="5" transform="matrix(1 0 0 -1 903 283)" fill="#86F5FF" fill-opacity="0.6"/>
<path d="M903 282V283H902L903 282Z" fill="#86F5FF" fill-opacity="0.6"/>
<path d="M904 278V279L905 278H904Z" fill="#86F5FF" fill-opacity="0.6"/>
<path d="M896 287L896 291L898 289L896 287Z" fill="#86F5FF" fill-opacity="0.6"/>
<path d="M897 288L901 284" stroke="#86F5FF" stroke-opacity="0.6" stroke-width="2.83"/>
<path d="M903.999 283H899.999L901.999 285L903.999 283Z" fill="#86F5FF" fill-opacity="0.6"/>
<path d="M905 278H903L904 277L905 278Z" fill="#86F5FF" fill-opacity="0.6"/>
<path d="M904.501 277.5L907.501 274.5" stroke="#86F5FF" stroke-opacity="0.6" stroke-width="1.41"/>
<path d="M909 274H907L908 275L909 274Z" fill="#86F5FF" fill-opacity="0.6"/>
</g>
<path d="M51 286V287L50 286H51Z" fill="#86F5FF" fill-opacity="0.6"/>
<rect width="842" height="1" transform="matrix(1 0 0 -1 51 287)" fill="#86F5FF" fill-opacity="0.6"/>
<path d="M893 286V287L894 286H893Z" fill="#86F5FF" fill-opacity="0.6"/>
<g opacity="0.3">
<rect x="10" y="253" width="203" height="1.9999" transform="rotate(-90 10 253)" fill="#86F5FF" fill-opacity="0.6"/>
<path d="M14 253L12 253L12 251L14 253Z" fill="#86F5FF" fill-opacity="0.6"/>
<path d="M14 50L12 50L12 52L14 50Z" fill="#86F5FF" fill-opacity="0.6"/>
</g>
<g opacity="0.3">
<rect x="18" y="261" width="1" height="5" transform="rotate(-90 18 261)" fill="#86F5FF" fill-opacity="0.6"/>
<path d="M19 260L18 260L18 259L19 260Z" fill="#86F5FF" fill-opacity="0.6"/>
<path d="M23 261L22 261L23 262L23 261Z" fill="#86F5FF" fill-opacity="0.6"/>
<path d="M18 257L18 261L16 259L18 257Z" fill="#86F5FF" fill-opacity="0.6"/>
<path d="M13 253.999L17 257.999" stroke="#86F5FF" stroke-opacity="0.6" stroke-width="2.83"/>
<path d="M14 253L10 253L12 255L14 253Z" fill="#86F5FF" fill-opacity="0.6"/>
<path d="M27 264L27 266L26 265L27 264Z" fill="#86F5FF" fill-opacity="0.6"/>
<path d="M23.5 261.499L26.5 264.499" stroke="#86F5FF" stroke-opacity="0.6" stroke-width="1.41"/>
<path d="M23 260L23 262L24 261L23 260Z" fill="#86F5FF" fill-opacity="0.6"/>
</g>
<g opacity="0.3">
<rect x="18" y="43" width="1" height="5" transform="rotate(-90 18 43)" fill="#86F5FF" fill-opacity="0.6"/>
<path d="M19 43L18 43L18 44L19 43Z" fill="#86F5FF" fill-opacity="0.6"/>
<path d="M23 42L22 42L23 41L23 42Z" fill="#86F5FF" fill-opacity="0.6"/>
<path d="M14 50L10 50L12 48L14 50Z" fill="#86F5FF" fill-opacity="0.6"/>
<path d="M13 49L17 45" stroke="#86F5FF" stroke-opacity="0.6" stroke-width="2.83"/>
<path d="M18 42.001L18 46.001L16 44.001L18 42.001Z" fill="#86F5FF" fill-opacity="0.6"/>
<path d="M23 41L23 43L24 42L23 41Z" fill="#86F5FF" fill-opacity="0.6"/>
<path d="M23.5 41.499L26.5 38.499" stroke="#86F5FF" stroke-opacity="0.6" stroke-width="1.41"/>
<path d="M27 37L27 39L26 38L27 37Z" fill="#86F5FF" fill-opacity="0.6"/>
</g>
<path d="M15 250L14 250L15 251L15 250Z" fill="#86F5FF" fill-opacity="0.6"/>
<rect x="14" y="250" width="197" height="1" transform="rotate(-90 14 250)" fill="#86F5FF" fill-opacity="0.6"/>
<path d="M15 53L14 53L15 52L15 53Z" fill="#86F5FF" fill-opacity="0.6"/>
<g opacity="0.3">
<rect x="934" y="50" width="203" height="1.9999" transform="rotate(90 934 50)" fill="#86F5FF" fill-opacity="0.6"/>
<path d="M930 50L932 50L932 52L930 50Z" fill="#86F5FF" fill-opacity="0.6"/>
<path d="M930 253L932 253L932 251L930 253Z" fill="#86F5FF" fill-opacity="0.6"/>
</g>
<g opacity="0.3">
<rect x="926" y="42" width="1" height="5" transform="rotate(90 926 42)" fill="#86F5FF" fill-opacity="0.6"/>
<path d="M925 43L926 43L926 44L925 43Z" fill="#86F5FF" fill-opacity="0.6"/>
<path d="M921 42L922 42L921 41L921 42Z" fill="#86F5FF" fill-opacity="0.6"/>
<path d="M926 46L926 42L928 44L926 46Z" fill="#86F5FF" fill-opacity="0.6"/>
<path d="M931 49.001L927 45.001" stroke="#86F5FF" stroke-opacity="0.6" stroke-width="2.83"/>
<path d="M930 50L934 50L932 48L930 50Z" fill="#86F5FF" fill-opacity="0.6"/>
<path d="M917 39L917 37L918 38L917 39Z" fill="#86F5FF" fill-opacity="0.6"/>
<path d="M920.5 41.501L917.5 38.501" stroke="#86F5FF" stroke-opacity="0.6" stroke-width="1.41"/>
<path d="M921 43L921 41L920 42L921 43Z" fill="#86F5FF" fill-opacity="0.6"/>
</g>
<g opacity="0.3">
<rect x="926" y="260" width="1" height="5" transform="rotate(90 926 260)" fill="#86F5FF" fill-opacity="0.6"/>
<path d="M925 260L926 260L926 259L925 260Z" fill="#86F5FF" fill-opacity="0.6"/>
<path d="M921 261L922 261L921 262L921 261Z" fill="#86F5FF" fill-opacity="0.6"/>
<path d="M930 253L934 253L932 255L930 253Z" fill="#86F5FF" fill-opacity="0.6"/>
<path d="M931 254L927 258" stroke="#86F5FF" stroke-opacity="0.6" stroke-width="2.83"/>
<path d="M926 260.999L926 256.999L928 258.999L926 260.999Z" fill="#86F5FF" fill-opacity="0.6"/>
<path d="M921 262L921 260L920 261L921 262Z" fill="#86F5FF" fill-opacity="0.6"/>
<path d="M920.5 261.501L917.5 264.501" stroke="#86F5FF" stroke-opacity="0.6" stroke-width="1.41"/>
<path d="M917 266L917 264L918 265L917 266Z" fill="#86F5FF" fill-opacity="0.6"/>
</g>
<path d="M929 53L930 53L929 52L929 53Z" fill="#86F5FF" fill-opacity="0.6"/>
<rect x="930" y="53" width="197" height="1" transform="rotate(90 930 53)" fill="#86F5FF" fill-opacity="0.6"/>
<path d="M929 250L930 250L929 251L929 250Z" fill="#86F5FF" fill-opacity="0.6"/>
</svg>
