<svg width="836" height="224" viewBox="0 0 836 224" fill="none" xmlns="http://www.w3.org/2000/svg">
<rect width="836" height="224" fill="black" fill-opacity="0.2"/>
<path d="M11 23H5L8 20L11 23Z" fill="#86F5FF"/>
<path d="M20.501 10.5L9.50098 21.5" stroke="#86F5FF" stroke-width="4.24"/>
<path d="M22 12L22 6L19 9L22 12Z" fill="#86F5FF"/>
<path d="M51 9V6H54L51 9Z" fill="#86F5FF"/>
<rect x="22" y="6" width="29" height="0.9999" fill="#86F5FF"/>
<path d="M22 8V7H23L22 8Z" fill="#86F5FF"/>
<path d="M51 8V7H50L51 8Z" fill="#86F5FF"/>
<rect x="5" y="23" width="1" height="29" fill="#86F5FF"/>
<path d="M6 24V23H7L6 24Z" fill="#86F5FF"/>
<path d="M6 52V51L7 52H6Z" fill="#86F5FF"/>
<path d="M5 55V52H8L5 55Z" fill="#86F5FF"/>
<g opacity="0.4">
<path d="M21 24H17L19 22L21 24Z" fill="#86F5FF"/>
<path d="M22.001 21L20.001 23" stroke="#86F5FF" stroke-width="2.83"/>
<path d="M23 22L23 18L21 20L23 22Z" fill="#86F5FF"/>
</g>
<path d="M24 29L24 31L25 30L24 29Z" fill="#86F5FF"/>
<path d="M28.501 25.5L24.501 29.5" stroke="#86F5FF" stroke-width="1.41"/>
<path d="M30 25H28L29 26L30 25Z" fill="#86F5FF"/>
<path d="M11 201H5L8 204L11 201Z" fill="#86F5FF"/>
<path d="M20.501 213.5L9.50098 202.5" stroke="#86F5FF" stroke-width="4.24"/>
<path d="M22 212L22 218L19 215L22 212Z" fill="#86F5FF"/>
<path d="M51 215V218H54L51 215Z" fill="#86F5FF"/>
<rect width="29" height="0.9999" transform="matrix(1 0 0 -1 22 218)" fill="#86F5FF"/>
<path d="M22 216V217H23L22 216Z" fill="#86F5FF"/>
<path d="M51 216V217H50L51 216Z" fill="#86F5FF"/>
<rect width="1" height="29" transform="matrix(1 0 0 -1 5 201)" fill="#86F5FF"/>
<path d="M6 200V201H7L6 200Z" fill="#86F5FF"/>
<path d="M6 172V173L7 172H6Z" fill="#86F5FF"/>
<path d="M5 169V172H8L5 169Z" fill="#86F5FF"/>
<g opacity="0.4">
<path d="M21 200H17L19 202L21 200Z" fill="#86F5FF"/>
<path d="M22.001 203L20.001 201" stroke="#86F5FF" stroke-width="2.83"/>
<path d="M23 202L23 206L21 204L23 202Z" fill="#86F5FF"/>
</g>
<path d="M24 195L24 193L25 194L24 195Z" fill="#86F5FF"/>
<path d="M28.501 198.5L24.501 194.5" stroke="#86F5FF" stroke-width="1.41"/>
<path d="M30 199H28L29 198L30 199Z" fill="#86F5FF"/>
<path d="M825 23H831L828 20L825 23Z" fill="#86F5FF"/>
<path d="M815.499 10.5L826.499 21.5" stroke="#86F5FF" stroke-width="4.24"/>
<path d="M814 12L814 6L817 9L814 12Z" fill="#86F5FF"/>
<path d="M785 9V6H782L785 9Z" fill="#86F5FF"/>
<rect width="29" height="0.9999" transform="matrix(-1 0 0 1 814 6)" fill="#86F5FF"/>
<path d="M814 8V7H813L814 8Z" fill="#86F5FF"/>
<path d="M785 8V7H786L785 8Z" fill="#86F5FF"/>
<rect width="1" height="29" transform="matrix(-1 0 0 1 831 23)" fill="#86F5FF"/>
<path d="M830 24V23H829L830 24Z" fill="#86F5FF"/>
<path d="M830 52V51L829 52H830Z" fill="#86F5FF"/>
<path d="M831 55V52H828L831 55Z" fill="#86F5FF"/>
<g opacity="0.4">
<path d="M815 24H819L817 22L815 24Z" fill="#86F5FF"/>
<path d="M813.999 21L815.999 23" stroke="#86F5FF" stroke-width="2.83"/>
<path d="M813 22L813 18L815 20L813 22Z" fill="#86F5FF"/>
</g>
<path d="M812 29L812 31L811 30L812 29Z" fill="#86F5FF"/>
<path d="M807.499 25.5L811.499 29.5" stroke="#86F5FF" stroke-width="1.41"/>
<path d="M806 25H808L807 26L806 25Z" fill="#86F5FF"/>
<path d="M825 201H831L828 204L825 201Z" fill="#86F5FF"/>
<path d="M815.499 213.5L826.499 202.5" stroke="#86F5FF" stroke-width="4.24"/>
<path d="M814 212L814 218L817 215L814 212Z" fill="#86F5FF"/>
<path d="M785 215V218H782L785 215Z" fill="#86F5FF"/>
<rect x="814" y="218" width="29" height="0.9999" transform="rotate(180 814 218)" fill="#86F5FF"/>
<path d="M814 216V217H813L814 216Z" fill="#86F5FF"/>
<path d="M785 216V217H786L785 216Z" fill="#86F5FF"/>
<rect x="831" y="201" width="1" height="29" transform="rotate(180 831 201)" fill="#86F5FF"/>
<path d="M830 200V201H829L830 200Z" fill="#86F5FF"/>
<path d="M830 172V173L829 172H830Z" fill="#86F5FF"/>
<path d="M831 169V172H828L831 169Z" fill="#86F5FF"/>
<g opacity="0.4">
<path d="M815 200H819L817 202L815 200Z" fill="#86F5FF"/>
<path d="M813.999 203L815.999 201" stroke="#86F5FF" stroke-width="2.83"/>
<path d="M813 202L813 206L815 204L813 202Z" fill="#86F5FF"/>
</g>
<path d="M812 195L812 193L811 194L812 195Z" fill="#86F5FF"/>
<path d="M807.499 198.5L811.499 194.5" stroke="#86F5FF" stroke-width="1.41"/>
<path d="M806 199H808L807 198L806 199Z" fill="#86F5FF"/>
<g opacity="0.3">
<rect x="48" y="12" width="740" height="1.9999" fill="#86F5FF" fill-opacity="0.6"/>
<path d="M48 16V14H50L48 16Z" fill="#86F5FF" fill-opacity="0.6"/>
<path d="M788 16V14H786L788 16Z" fill="#86F5FF" fill-opacity="0.6"/>
</g>
<g opacity="0.3">
<rect x="40" y="20" width="1" height="5" fill="#86F5FF" fill-opacity="0.6"/>
<path d="M41 21V20H42L41 21Z" fill="#86F5FF" fill-opacity="0.6"/>
<path d="M40 25V24L39 25H40Z" fill="#86F5FF" fill-opacity="0.6"/>
<path d="M44 20H40L42 18L44 20Z" fill="#86F5FF" fill-opacity="0.6"/>
<path d="M47.001 15L43.001 19" stroke="#86F5FF" stroke-opacity="0.6" stroke-width="2.83"/>
<path d="M48 16L48 12L46 14L48 16Z" fill="#86F5FF" fill-opacity="0.6"/>
<path d="M37 29H35L36 28L37 29Z" fill="#86F5FF" fill-opacity="0.6"/>
<path d="M39.501 25.5L36.501 28.5" stroke="#86F5FF" stroke-opacity="0.6" stroke-width="1.41"/>
<path d="M41 25H39L40 26L41 25Z" fill="#86F5FF" fill-opacity="0.6"/>
</g>
<g opacity="0.3">
<rect x="795" y="20" width="1" height="5" fill="#86F5FF" fill-opacity="0.6"/>
<path d="M795 21V20H794L795 21Z" fill="#86F5FF" fill-opacity="0.6"/>
<path d="M796 25V24L797 25H796Z" fill="#86F5FF" fill-opacity="0.6"/>
<path d="M788 16L788 12L790 14L788 16Z" fill="#86F5FF" fill-opacity="0.6"/>
<path d="M789 15L793 19" stroke="#86F5FF" stroke-opacity="0.6" stroke-width="2.83"/>
<path d="M795.999 20H791.999L793.999 18L795.999 20Z" fill="#86F5FF" fill-opacity="0.6"/>
<path d="M797 25H795L796 26L797 25Z" fill="#86F5FF" fill-opacity="0.6"/>
<path d="M796.501 25.5L799.501 28.5" stroke="#86F5FF" stroke-opacity="0.6" stroke-width="1.41"/>
<path d="M801 29H799L800 28L801 29Z" fill="#86F5FF" fill-opacity="0.6"/>
</g>
<path d="M51 17V16L50 17H51Z" fill="#86F5FF" fill-opacity="0.6"/>
<rect x="51" y="16" width="734" height="1" fill="#86F5FF" fill-opacity="0.6"/>
<path d="M785 17V16L786 17H785Z" fill="#86F5FF" fill-opacity="0.6"/>
<g opacity="0.3">
<rect width="740" height="1.9999" transform="matrix(1 0 0 -1 48 212)" fill="#86F5FF" fill-opacity="0.6"/>
<path d="M48 208V210H50L48 208Z" fill="#86F5FF" fill-opacity="0.6"/>
<path d="M788 208V210H786L788 208Z" fill="#86F5FF" fill-opacity="0.6"/>
</g>
<g opacity="0.3">
<rect width="1" height="5" transform="matrix(1 0 0 -1 40 204)" fill="#86F5FF" fill-opacity="0.6"/>
<path d="M41 203V204H42L41 203Z" fill="#86F5FF" fill-opacity="0.6"/>
<path d="M40 199V200L39 199H40Z" fill="#86F5FF" fill-opacity="0.6"/>
<path d="M44 204H40L42 206L44 204Z" fill="#86F5FF" fill-opacity="0.6"/>
<path d="M47.001 209L43.001 205" stroke="#86F5FF" stroke-opacity="0.6" stroke-width="2.83"/>
<path d="M48 208L48 212L46 210L48 208Z" fill="#86F5FF" fill-opacity="0.6"/>
<path d="M37 195H35L36 196L37 195Z" fill="#86F5FF" fill-opacity="0.6"/>
<path d="M39.501 198.5L36.501 195.5" stroke="#86F5FF" stroke-opacity="0.6" stroke-width="1.41"/>
<path d="M41 199H39L40 198L41 199Z" fill="#86F5FF" fill-opacity="0.6"/>
</g>
<g opacity="0.3">
<rect width="1" height="5" transform="matrix(1 0 0 -1 795 204)" fill="#86F5FF" fill-opacity="0.6"/>
<path d="M795 203V204H794L795 203Z" fill="#86F5FF" fill-opacity="0.6"/>
<path d="M796 199V200L797 199H796Z" fill="#86F5FF" fill-opacity="0.6"/>
<path d="M788 208L788 212L790 210L788 208Z" fill="#86F5FF" fill-opacity="0.6"/>
<path d="M789 209L793 205" stroke="#86F5FF" stroke-opacity="0.6" stroke-width="2.83"/>
<path d="M795.999 204H791.999L793.999 206L795.999 204Z" fill="#86F5FF" fill-opacity="0.6"/>
<path d="M797 199H795L796 198L797 199Z" fill="#86F5FF" fill-opacity="0.6"/>
<path d="M796.501 198.5L799.501 195.5" stroke="#86F5FF" stroke-opacity="0.6" stroke-width="1.41"/>
<path d="M801 195H799L800 196L801 195Z" fill="#86F5FF" fill-opacity="0.6"/>
</g>
<path d="M51 207V208L50 207H51Z" fill="#86F5FF" fill-opacity="0.6"/>
<rect width="734" height="1" transform="matrix(1 0 0 -1 51 208)" fill="#86F5FF" fill-opacity="0.6"/>
<path d="M785 207V208L786 207H785Z" fill="#86F5FF" fill-opacity="0.6"/>
<g opacity="0.3">
<rect x="10" y="174" width="124" height="1.9999" transform="rotate(-90 10 174)" fill="#86F5FF" fill-opacity="0.6"/>
<path d="M14 174L12 174L12 172L14 174Z" fill="#86F5FF" fill-opacity="0.6"/>
<path d="M14 50L12 50L12 52L14 50Z" fill="#86F5FF" fill-opacity="0.6"/>
</g>
<g opacity="0.3">
<rect x="18" y="182" width="1" height="5" transform="rotate(-90 18 182)" fill="#86F5FF" fill-opacity="0.6"/>
<path d="M19 181L18 181L18 180L19 181Z" fill="#86F5FF" fill-opacity="0.6"/>
<path d="M23 182L22 182L23 183L23 182Z" fill="#86F5FF" fill-opacity="0.6"/>
<path d="M18 178L18 182L16 180L18 178Z" fill="#86F5FF" fill-opacity="0.6"/>
<path d="M13 174.999L17 178.999" stroke="#86F5FF" stroke-opacity="0.6" stroke-width="2.83"/>
<path d="M14 174L10 174L12 176L14 174Z" fill="#86F5FF" fill-opacity="0.6"/>
<path d="M27 185L27 187L26 186L27 185Z" fill="#86F5FF" fill-opacity="0.6"/>
<path d="M23.5 182.499L26.5 185.499" stroke="#86F5FF" stroke-opacity="0.6" stroke-width="1.41"/>
<path d="M23 181L23 183L24 182L23 181Z" fill="#86F5FF" fill-opacity="0.6"/>
</g>
<g opacity="0.3">
<rect x="18" y="43" width="1" height="5" transform="rotate(-90 18 43)" fill="#86F5FF" fill-opacity="0.6"/>
<path d="M19 43L18 43L18 44L19 43Z" fill="#86F5FF" fill-opacity="0.6"/>
<path d="M23 42L22 42L23 41L23 42Z" fill="#86F5FF" fill-opacity="0.6"/>
<path d="M14 50L10 50L12 48L14 50Z" fill="#86F5FF" fill-opacity="0.6"/>
<path d="M13 49L17 45" stroke="#86F5FF" stroke-opacity="0.6" stroke-width="2.83"/>
<path d="M18 42.001L18 46.001L16 44.001L18 42.001Z" fill="#86F5FF" fill-opacity="0.6"/>
<path d="M23 41L23 43L24 42L23 41Z" fill="#86F5FF" fill-opacity="0.6"/>
<path d="M23.5 41.499L26.5 38.499" stroke="#86F5FF" stroke-opacity="0.6" stroke-width="1.41"/>
<path d="M27 37L27 39L26 38L27 37Z" fill="#86F5FF" fill-opacity="0.6"/>
</g>
<path d="M15 171L14 171L15 172L15 171Z" fill="#86F5FF" fill-opacity="0.6"/>
<rect x="14" y="171" width="118" height="1" transform="rotate(-90 14 171)" fill="#86F5FF" fill-opacity="0.6"/>
<path d="M15 53L14 53L15 52L15 53Z" fill="#86F5FF" fill-opacity="0.6"/>
<g opacity="0.3">
<rect x="826" y="50" width="124" height="1.9999" transform="rotate(90 826 50)" fill="#86F5FF" fill-opacity="0.6"/>
<path d="M822 50L824 50L824 52L822 50Z" fill="#86F5FF" fill-opacity="0.6"/>
<path d="M822 174L824 174L824 172L822 174Z" fill="#86F5FF" fill-opacity="0.6"/>
</g>
<g opacity="0.3">
<rect x="818" y="42" width="1" height="5" transform="rotate(90 818 42)" fill="#86F5FF" fill-opacity="0.6"/>
<path d="M817 43L818 43L818 44L817 43Z" fill="#86F5FF" fill-opacity="0.6"/>
<path d="M813 42L814 42L813 41L813 42Z" fill="#86F5FF" fill-opacity="0.6"/>
<path d="M818 46L818 42L820 44L818 46Z" fill="#86F5FF" fill-opacity="0.6"/>
<path d="M823 49.001L819 45.001" stroke="#86F5FF" stroke-opacity="0.6" stroke-width="2.83"/>
<path d="M822 50L826 50L824 48L822 50Z" fill="#86F5FF" fill-opacity="0.6"/>
<path d="M809 39L809 37L810 38L809 39Z" fill="#86F5FF" fill-opacity="0.6"/>
<path d="M812.5 41.501L809.5 38.501" stroke="#86F5FF" stroke-opacity="0.6" stroke-width="1.41"/>
<path d="M813 43L813 41L812 42L813 43Z" fill="#86F5FF" fill-opacity="0.6"/>
</g>
<g opacity="0.3">
<rect x="818" y="181" width="1" height="5" transform="rotate(90 818 181)" fill="#86F5FF" fill-opacity="0.6"/>
<path d="M817 181L818 181L818 180L817 181Z" fill="#86F5FF" fill-opacity="0.6"/>
<path d="M813 182L814 182L813 183L813 182Z" fill="#86F5FF" fill-opacity="0.6"/>
<path d="M822 174L826 174L824 176L822 174Z" fill="#86F5FF" fill-opacity="0.6"/>
<path d="M823 175L819 179" stroke="#86F5FF" stroke-opacity="0.6" stroke-width="2.83"/>
<path d="M818 181.999L818 177.999L820 179.999L818 181.999Z" fill="#86F5FF" fill-opacity="0.6"/>
<path d="M813 183L813 181L812 182L813 183Z" fill="#86F5FF" fill-opacity="0.6"/>
<path d="M812.5 182.501L809.5 185.501" stroke="#86F5FF" stroke-opacity="0.6" stroke-width="1.41"/>
<path d="M809 187L809 185L810 186L809 187Z" fill="#86F5FF" fill-opacity="0.6"/>
</g>
<path d="M821 53L822 53L821 52L821 53Z" fill="#86F5FF" fill-opacity="0.6"/>
<rect x="822" y="53" width="118" height="1" transform="rotate(90 822 53)" fill="#86F5FF" fill-opacity="0.6"/>
<path d="M821 171L822 171L821 172L821 171Z" fill="#86F5FF" fill-opacity="0.6"/>
</svg>
