<svg width="35" height="16" viewBox="0 0 35 16" fill="none" xmlns="http://www.w3.org/2000/svg">
<path d="M0 0.955566H2.91667V3.87223H0V0.955566ZM5.83333 6.7889H2.91667V3.87223H5.83333V6.7889ZM11.6667 9.70557V6.7889H5.83333V9.70557H2.91667V12.6222H5.83333V9.70557H11.6667ZM23.3333 9.70557H11.6667V12.6222H8.75V15.5389H11.6667V12.6222H23.3333V15.5389H26.25V12.6222H23.3333V9.70557ZM29.1667 6.7889H23.3333V9.70557H29.1667V12.6222H32.0833V9.70557H29.1667V6.7889ZM32.0833 3.87223V6.7889H29.1667V3.87223H32.0833ZM32.0833 3.87223V0.955566H35V3.87223H32.0833Z" fill="#86F5FF"/>
</svg>
