<svg width="31" height="27" viewBox="0 0 31 27" fill="none" xmlns="http://www.w3.org/2000/svg">
<path d="M15.091 8.15442L15.4999 8.73495L15.9087 8.15442L17.6972 5.61458C18.6669 4.23762 20.2606 3.34668 22.0624 3.34668C25.0079 3.34668 27.3957 5.7345 27.3957 8.68001C27.3957 11.8941 25.8095 14.6394 23.2036 17.2212C20.9707 19.4334 18.2137 21.3111 15.4999 23.1144C12.7858 21.311 10.0288 19.4335 7.796 17.2214C5.19016 14.6397 3.604 11.8945 3.604 8.68001C3.604 5.73449 5.99182 3.34668 8.93734 3.34668C10.7392 3.34668 12.3329 4.23762 13.3025 5.61458L15.091 8.15442ZM15.2234 24.1312L15.4999 24.3147L15.7764 24.1312C18.567 22.2793 21.5183 20.2986 23.9074 17.9316C26.6151 15.249 28.3957 12.2633 28.3957 8.68001C28.3957 5.18221 25.5602 2.34668 22.0624 2.34668C19.922 2.34668 18.0288 3.40688 16.8796 5.03881L15.4999 6.99812L14.1201 5.03881C12.9709 3.40688 11.0777 2.34668 8.93734 2.34668C5.43953 2.34668 2.604 5.18221 2.604 8.68001C2.604 12.2636 4.38456 15.2493 7.09219 17.9318C9.48129 20.2987 12.4326 22.2792 15.2234 24.1312ZM15.091 4.3551L15.4999 4.93563L15.9087 4.3551C16.3111 3.78356 16.7913 3.27052 17.3337 2.83139C18.6257 1.7854 20.2702 1.15918 22.0624 1.15918C26.216 1.15918 29.5832 4.52637 29.5832 8.68001C29.5832 12.5014 27.7675 15.6437 25.1621 18.3503C22.5497 21.0642 19.1871 23.2956 16.1644 25.2992L16.1635 25.2997C15.9403 25.4477 15.7188 25.5945 15.4999 25.74C15.2803 25.5941 15.0582 25.4469 14.8343 25.2985C11.8115 23.2949 8.44913 21.0637 5.83701 18.35C3.23196 15.6436 1.4165 12.5014 1.4165 8.68001C1.4165 4.52637 4.7837 1.15918 8.93734 1.15918C10.7295 1.15918 12.374 1.7854 13.666 2.83139C14.2084 3.27052 14.6886 3.78356 15.091 4.3551Z" fill="white" fill-opacity="0.8" stroke="white"/>
</svg>
