<svg width="31" height="27" viewBox="0 0 31 27" fill="none" xmlns="http://www.w3.org/2000/svg">
<path fill-rule="evenodd" clip-rule="evenodd" d="M15.5001 7.86653L13.7116 5.32669C12.6521 3.82225 10.9087 2.84668 8.93758 2.84668C5.71592 2.84668 3.10425 5.45835 3.10425 8.68001C3.10425 12.0791 4.78761 14.9445 7.44434 17.5766C9.79324 19.9037 12.7034 21.8587 15.5001 23.7146C18.2966 21.8588 21.2068 19.9036 23.5557 17.5764C26.2126 14.9442 27.896 12.0787 27.896 8.68001C27.896 5.45835 25.2843 2.84668 22.0626 2.84668C20.0915 2.84668 18.3481 3.82225 17.2886 5.32669L15.5001 7.86653ZM15.5001 26.3407C15.1915 26.1349 14.8771 25.9265 14.5583 25.7152C8.5303 21.7197 0.916748 16.6732 0.916748 8.68001C0.916748 4.25023 4.5078 0.65918 8.93758 0.65918C10.8484 0.65918 12.6031 1.32735 13.9809 2.44278C14.5591 2.91092 15.071 3.45784 15.5001 4.06722C15.9292 3.45784 16.4411 2.91092 17.0193 2.44278C18.3971 1.32735 20.1518 0.65918 22.0626 0.65918C26.4924 0.65918 30.0835 4.25023 30.0835 8.68001C30.0835 16.673 22.4687 21.7204 16.4409 25.7159C16.1224 25.927 15.8084 26.1352 15.5001 26.3407Z" fill="white" fill-opacity="0.8"/>
</svg>
