<svg width="227" height="220" viewBox="0 0 227 220" fill="none" xmlns="http://www.w3.org/2000/svg">
<path d="M8 24H0L4 20L8 24Z" fill="#86F5FF"/>
<path d="M22.001 6L6.00098 22" stroke="#86F5FF" stroke-width="5.66"/>
<path d="M24 8L24 0L20 4L24 8Z" fill="#86F5FF"/>
<rect x="24" width="30" height="3.9999" fill="#86F5FF"/>
<path d="M24 8V4H28L24 8Z" fill="#86F5FF"/>
<rect y="54" width="2" height="32" fill="#86F5FF"/>
<path d="M2 56V54H4L2 56Z" fill="#86F5FF"/>
<path d="M2 86V84L4 86H2Z" fill="#86F5FF"/>
<rect x="54" width="30" height="1.9999" fill="#86F5FF"/>
<path d="M54 4V2H56L54 4Z" fill="#86F5FF"/>
<path d="M84 4V2H82L84 4Z" fill="#86F5FF"/>
<rect y="24" width="4" height="30" fill="#86F5FF"/>
<path d="M4 28V24H8L4 28Z" fill="#86F5FF"/>
<path d="M84 0L84 4L86 2L84 0Z" fill="#86F5FF"/>
<path d="M85 3L87 5" stroke="#86F5FF" stroke-width="2.83"/>
<path d="M87.999 4L87.999 8L85.999 6L87.999 4Z" fill="#86F5FF"/>
<path d="M4 86H0L2 88L4 86Z" fill="#86F5FF"/>
<path d="M3 87L13 97" stroke="#86F5FF" stroke-width="2.83"/>
<path d="M15.999 98H11.999L13.999 96L15.999 98Z" fill="#86F5FF"/>
<rect x="14" y="98" width="2" height="10" fill="#86F5FF"/>
<path d="M14 100V98H12L14 100Z" fill="#86F5FF"/>
<path d="M15.9999 110.412V108H14L15.9999 110.412Z" fill="#86F5FF"/>
<path d="M99 2L99 4L100 3L99 2Z" fill="#86F5FF"/>
<path d="M99.501 3.5L103.501 7.5" stroke="#86F5FF" stroke-width="1.41"/>
<path d="M104 7L104 9L103 8L104 7Z" fill="#86F5FF"/>
<path d="M104 7L104 13L107 10L104 7Z" fill="#86F5FF"/>
<path d="M105.501 11.5L114.501 20.5" stroke="#86F5FF" stroke-width="4.24"/>
<path d="M116 19L116 25L113 22L116 19Z" fill="#86F5FF"/>
<rect x="92" y="2" width="7" height="0.9999" fill="#86F5FF"/>
<path d="M99 4V3H98L99 4Z" fill="#86F5FF"/>
<path d="M92 3V2H91L92 3Z" fill="#86F5FF"/>
<rect x="88" y="6" width="9" height="1.9999" fill="#86F5FF"/>
<path d="M88 6V4L90 6H88Z" fill="#86F5FF"/>
<path d="M97 8V6L99 8H97Z" fill="#86F5FF"/>
<g opacity="0.4">
<path d="M4 104V100L8 104H4Z" fill="#86F5FF"/>
<rect x="4" y="104" width="4" height="1" fill="#86F5FF"/>
<path d="M8 109V105H4L8 109Z" fill="#86F5FF"/>
</g>
<path d="M8 196H0L4 200L8 196Z" fill="#86F5FF"/>
<path d="M22.001 214L6.00098 198" stroke="#86F5FF" stroke-width="5.66"/>
<path d="M24 212L24 220L20 216L24 212Z" fill="#86F5FF"/>
<rect width="30" height="3.9999" transform="matrix(1 0 0 -1 24 220)" fill="#86F5FF"/>
<path d="M24 212V216H28L24 212Z" fill="#86F5FF"/>
<rect width="2" height="32" transform="matrix(1 0 0 -1 0 166)" fill="#86F5FF"/>
<path d="M2 164V166H4L2 164Z" fill="#86F5FF"/>
<path d="M2 134V136L4 134H2Z" fill="#86F5FF"/>
<rect width="30" height="1.9999" transform="matrix(1 0 0 -1 54 220)" fill="#86F5FF"/>
<path d="M54 216V218H56L54 216Z" fill="#86F5FF"/>
<path d="M84 216V218H82L84 216Z" fill="#86F5FF"/>
<rect width="4" height="30" transform="matrix(1 0 0 -1 0 196)" fill="#86F5FF"/>
<path d="M4 192V196H8L4 192Z" fill="#86F5FF"/>
<path d="M84 220L84 216L86 218L84 220Z" fill="#86F5FF"/>
<path d="M85 217L87 215" stroke="#86F5FF" stroke-width="2.83"/>
<path d="M87.999 216L87.999 212L85.999 214L87.999 216Z" fill="#86F5FF"/>
<path d="M4 134H0L2 132L4 134Z" fill="#86F5FF"/>
<path d="M3 133L13 123" stroke="#86F5FF" stroke-width="2.83"/>
<path d="M15.999 122H11.999L13.999 124L15.999 122Z" fill="#86F5FF"/>
<rect width="2" height="10" transform="matrix(1 0 0 -1 14 122)" fill="#86F5FF"/>
<path d="M14 120V122H12L14 120Z" fill="#86F5FF"/>
<path d="M15.9999 109.588V112H14L15.9999 109.588Z" fill="#86F5FF"/>
<path d="M99 218L99 216L100 217L99 218Z" fill="#86F5FF"/>
<path d="M99.501 216.5L103.501 212.5" stroke="#86F5FF" stroke-width="1.41"/>
<path d="M104 213L104 211L103 212L104 213Z" fill="#86F5FF"/>
<path d="M104 213L104 207L107 210L104 213Z" fill="#86F5FF"/>
<path d="M105.501 208.5L114.501 199.5" stroke="#86F5FF" stroke-width="4.24"/>
<path d="M116 201L116 195L113 198L116 201Z" fill="#86F5FF"/>
<rect width="7" height="0.9999" transform="matrix(1 0 0 -1 92 218)" fill="#86F5FF"/>
<path d="M99 216V217H98L99 216Z" fill="#86F5FF"/>
<path d="M92 217V218H91L92 217Z" fill="#86F5FF"/>
<rect width="9" height="1.9999" transform="matrix(1 0 0 -1 88 214)" fill="#86F5FF"/>
<path d="M88 214V216L90 214H88Z" fill="#86F5FF"/>
<path d="M97 212V214L99 212H97Z" fill="#86F5FF"/>
<g opacity="0.4">
<path d="M4 116V120L8 116H4Z" fill="#86F5FF"/>
<rect width="4" height="1" transform="matrix(1 0 0 -1 4 116)" fill="#86F5FF"/>
<path d="M8 111V115H4L8 111Z" fill="#86F5FF"/>
</g>
<path d="M219 24H227L223 20L219 24Z" fill="#86F5FF"/>
<path d="M204.999 6L220.999 22" stroke="#86F5FF" stroke-width="5.66"/>
<path d="M203 8L203 0L207 4L203 8Z" fill="#86F5FF"/>
<rect width="30" height="3.9999" transform="matrix(-1 0 0 1 203 0)" fill="#86F5FF"/>
<path d="M203 8V4H199L203 8Z" fill="#86F5FF"/>
<rect width="2" height="32" transform="matrix(-1 0 0 1 227 54)" fill="#86F5FF"/>
<path d="M225 56V54H223L225 56Z" fill="#86F5FF"/>
<path d="M225 86V84L223 86H225Z" fill="#86F5FF"/>
<rect width="30" height="1.9999" transform="matrix(-1 0 0 1 173 0)" fill="#86F5FF"/>
<path d="M173 4V2H171L173 4Z" fill="#86F5FF"/>
<path d="M143 4V2H145L143 4Z" fill="#86F5FF"/>
<rect width="4" height="30" transform="matrix(-1 0 0 1 227 24)" fill="#86F5FF"/>
<path d="M223 28V24H219L223 28Z" fill="#86F5FF"/>
<path d="M143 0L143 4L141 2L143 0Z" fill="#86F5FF"/>
<path d="M142 3L140 5" stroke="#86F5FF" stroke-width="2.83"/>
<path d="M139.001 4L139.001 8L141.001 6L139.001 4Z" fill="#86F5FF"/>
<path d="M223 86H227L225 88L223 86Z" fill="#86F5FF"/>
<path d="M224 87L214 97" stroke="#86F5FF" stroke-width="2.83"/>
<path d="M211.001 98H215.001L213.001 96L211.001 98Z" fill="#86F5FF"/>
<rect width="2" height="10" transform="matrix(-1 0 0 1 213 98)" fill="#86F5FF"/>
<path d="M213 100V98H215L213 100Z" fill="#86F5FF"/>
<path d="M211 110.412V108H213L211 110.412Z" fill="#86F5FF"/>
<path d="M128 2L128 4L127 3L128 2Z" fill="#86F5FF"/>
<path d="M127.499 3.5L123.499 7.5" stroke="#86F5FF" stroke-width="1.41"/>
<path d="M123 7L123 9L124 8L123 7Z" fill="#86F5FF"/>
<path d="M123 7L123 13L120 10L123 7Z" fill="#86F5FF"/>
<path d="M121.499 11.5L112.499 20.5" stroke="#86F5FF" stroke-width="4.24"/>
<path d="M111 19L111 25L114 22L111 19Z" fill="#86F5FF"/>
<rect width="7" height="0.9999" transform="matrix(-1 0 0 1 135 2)" fill="#86F5FF"/>
<path d="M128 4V3H129L128 4Z" fill="#86F5FF"/>
<path d="M135 3V2H136L135 3Z" fill="#86F5FF"/>
<rect width="9" height="1.9999" transform="matrix(-1 0 0 1 139 6)" fill="#86F5FF"/>
<path d="M139 6V4L137 6H139Z" fill="#86F5FF"/>
<path d="M130 8V6L128 8H130Z" fill="#86F5FF"/>
<g opacity="0.4">
<path d="M223 104V100L219 104H223Z" fill="#86F5FF"/>
<rect width="4" height="1" transform="matrix(-1 0 0 1 223 104)" fill="#86F5FF"/>
<path d="M219 109V105H223L219 109Z" fill="#86F5FF"/>
</g>
<path d="M219 196H227L223 200L219 196Z" fill="#86F5FF"/>
<path d="M204.999 214L220.999 198" stroke="#86F5FF" stroke-width="5.66"/>
<path d="M203 212L203 220L207 216L203 212Z" fill="#86F5FF"/>
<rect x="203" y="220" width="30" height="3.9999" transform="rotate(180 203 220)" fill="#86F5FF"/>
<path d="M203 212V216H199L203 212Z" fill="#86F5FF"/>
<rect x="227" y="166" width="2" height="32" transform="rotate(180 227 166)" fill="#86F5FF"/>
<path d="M225 164V166H223L225 164Z" fill="#86F5FF"/>
<path d="M225 134V136L223 134H225Z" fill="#86F5FF"/>
<rect x="173" y="220" width="30" height="1.9999" transform="rotate(180 173 220)" fill="#86F5FF"/>
<path d="M173 216V218H171L173 216Z" fill="#86F5FF"/>
<path d="M143 216V218H145L143 216Z" fill="#86F5FF"/>
<rect x="227" y="196" width="4" height="30" transform="rotate(180 227 196)" fill="#86F5FF"/>
<path d="M223 192V196H219L223 192Z" fill="#86F5FF"/>
<path d="M143 220L143 216L141 218L143 220Z" fill="#86F5FF"/>
<path d="M142 217L140 215" stroke="#86F5FF" stroke-width="2.83"/>
<path d="M139.001 216L139.001 212L141.001 214L139.001 216Z" fill="#86F5FF"/>
<path d="M223 134H227L225 132L223 134Z" fill="#86F5FF"/>
<path d="M224 133L214 123" stroke="#86F5FF" stroke-width="2.83"/>
<path d="M211.001 122H215.001L213.001 124L211.001 122Z" fill="#86F5FF"/>
<rect x="213" y="122" width="2" height="10" transform="rotate(180 213 122)" fill="#86F5FF"/>
<path d="M213 120V122H215L213 120Z" fill="#86F5FF"/>
<path d="M211 109.588V112H213L211 109.588Z" fill="#86F5FF"/>
<path d="M128 218L128 216L127 217L128 218Z" fill="#86F5FF"/>
<path d="M127.499 216.5L123.499 212.5" stroke="#86F5FF" stroke-width="1.41"/>
<path d="M123 213L123 211L124 212L123 213Z" fill="#86F5FF"/>
<path d="M123 213L123 207L120 210L123 213Z" fill="#86F5FF"/>
<path d="M121.499 208.5L112.499 199.5" stroke="#86F5FF" stroke-width="4.24"/>
<path d="M111 201L111 195L114 198L111 201Z" fill="#86F5FF"/>
<rect x="135" y="218" width="7" height="0.9999" transform="rotate(180 135 218)" fill="#86F5FF"/>
<path d="M128 216V217H129L128 216Z" fill="#86F5FF"/>
<path d="M135 217V218H136L135 217Z" fill="#86F5FF"/>
<rect x="139" y="214" width="9" height="1.9999" transform="rotate(180 139 214)" fill="#86F5FF"/>
<path d="M139 214V216L137 214H139Z" fill="#86F5FF"/>
<path d="M130 212V214L128 212H130Z" fill="#86F5FF"/>
<g opacity="0.4">
<path d="M223 116V120L219 116H223Z" fill="#86F5FF"/>
<rect x="223" y="116" width="4" height="1" transform="rotate(180 223 116)" fill="#86F5FF"/>
<path d="M219 111V115H223L219 111Z" fill="#86F5FF"/>
</g>
</svg>
