<svg width="11" height="12" viewBox="0 0 11 12" fill="none" xmlns="http://www.w3.org/2000/svg">
<path d="M2.0625 12C1.68437 12 1.36079 11.8696 1.09175 11.6087C0.82225 11.3473 0.6875 11.0333 0.6875 10.6667V2C0.492708 2 0.329313 1.93622 0.197313 1.80867C0.065771 1.68067 0 1.52222 0 1.33333C0 1.14444 0.065771 0.986 0.197313 0.858C0.329313 0.730445 0.492708 0.666667 0.6875 0.666667H3.4375C3.4375 0.477778 3.5035 0.319333 3.6355 0.191333C3.76704 0.0637777 3.93021 0 4.125 0H6.875C7.06979 0 7.23319 0.0637777 7.36519 0.191333C7.49673 0.319333 7.5625 0.477778 7.5625 0.666667H10.3125C10.5073 0.666667 10.6705 0.730445 10.802 0.858C10.934 0.986 11 1.14444 11 1.33333C11 1.52222 10.934 1.68067 10.802 1.80867C10.6705 1.93622 10.5073 2 10.3125 2V10.6667C10.3125 11.0333 10.178 11.3473 9.90894 11.6087C9.63944 11.8696 9.31563 12 8.9375 12H2.0625ZM3.4375 8.66667C3.4375 8.85556 3.5035 9.01378 3.6355 9.14133C3.76704 9.26933 3.93021 9.33333 4.125 9.33333C4.31979 9.33333 4.48319 9.26933 4.61519 9.14133C4.74673 9.01378 4.8125 8.85556 4.8125 8.66667V4C4.8125 3.81111 4.74673 3.65267 4.61519 3.52467C4.48319 3.39711 4.31979 3.33333 4.125 3.33333C3.93021 3.33333 3.76704 3.39711 3.6355 3.52467C3.5035 3.65267 3.4375 3.81111 3.4375 4V8.66667ZM6.1875 8.66667C6.1875 8.85556 6.2535 9.01378 6.3855 9.14133C6.51704 9.26933 6.68021 9.33333 6.875 9.33333C7.06979 9.33333 7.23319 9.26933 7.36519 9.14133C7.49673 9.01378 7.5625 8.85556 7.5625 8.66667V4C7.5625 3.81111 7.49673 3.65267 7.36519 3.52467C7.23319 3.39711 7.06979 3.33333 6.875 3.33333C6.68021 3.33333 6.51704 3.39711 6.3855 3.52467C6.2535 3.65267 6.1875 3.81111 6.1875 4V8.66667Z" fill="#EFEFEF"/>
</svg>
